<?xml version="1.0" standalone="no"?>
<!DOCTYPE svg PUBLIC "-//W3C//DTD SVG 20010904//EN"
 "http://www.w3.org/TR/2001/REC-SVG-20010904/DTD/svg10.dtd">
<svg version="1.0" xmlns="http://www.w3.org/2000/svg"
 width="607.000000pt" height="607.000000pt" viewBox="0 0 607.000000 607.000000"
 preserveAspectRatio="xMidYMid meet">

<g transform="translate(0.000000,607.000000) scale(0.100000,-0.100000)"
fill="#000000" stroke="none">
<path d="M3396 6059 c3 -5 4 -9 2 -10 -2 0 -23 -3 -48 -6 -25 -3 -53 -9 -62
-14 -9 -5 -27 -9 -40 -9 -13 0 -59 -18 -103 -40 -44 -22 -85 -40 -91 -40 -6 0
-23 -11 -39 -24 -15 -13 -41 -27 -56 -30 -16 -3 -39 -17 -51 -31 -12 -14 -30
-25 -40 -25 -10 0 -18 -4 -18 -9 0 -5 -11 -12 -24 -15 -14 -3 -37 -17 -53 -30
-16 -13 -47 -34 -71 -46 -23 -12 -42 -28 -42 -36 0 -8 -4 -14 -10 -14 -5 0
-10 -7 -10 -15 0 -8 -9 -15 -20 -15 -11 0 -23 -8 -27 -17 -3 -10 -25 -38 -49
-63 -24 -25 -78 -81 -121 -126 -43 -44 -100 -111 -128 -148 -27 -36 -55 -72
-60 -79 -6 -6 -32 -46 -59 -87 -27 -41 -56 -86 -65 -100 -10 -14 -23 -41 -30
-60 -7 -19 -17 -44 -21 -55 -5 -11 -11 -33 -14 -50 -2 -16 -14 -66 -26 -110
-12 -44 -23 -100 -25 -125 -29 -308 -30 -419 -8 -545 6 -33 14 -109 17 -168 3
-60 8 -112 11 -117 3 -5 10 -60 15 -122 15 -182 21 -222 34 -238 21 -25 56
-150 42 -150 -2 0 -40 7 -85 15 -77 15 -145 13 -156 -5 -4 -6 56 -42 75 -45 3
0 15 -6 28 -13 12 -7 26 -11 31 -8 5 3 14 -1 21 -9 8 -10 24 -13 50 -9 36 5
40 3 63 -33 13 -21 27 -47 31 -59 8 -26 53 -70 63 -61 3 4 5 33 3 64 -8 129 5
390 21 409 6 7 8 18 5 23 -4 5 -2 29 3 53 6 24 15 102 21 173 13 154 19 196
31 211 5 6 8 43 5 83 -2 39 0 71 4 71 13 0 19 39 8 47 -7 4 -4 11 7 20 13 9
19 25 18 48 -1 23 4 35 12 35 7 0 18 22 25 53 7 28 16 57 20 62 16 23 20 47 7
42 -8 -3 -14 1 -14 9 0 8 4 14 9 14 18 0 30 53 17 77 -9 17 -9 26 0 37 7 8 10
20 7 25 -4 5 -2 12 4 16 6 3 10 -3 10 -15 0 -13 5 -20 13 -17 6 2 12 8 12 13
0 5 4 15 8 22 5 7 3 12 -7 12 -23 0 -30 20 -12 38 15 15 16 15 16 -1 0 -9 5
-17 10 -17 16 0 12 27 -5 34 -17 6 -21 46 -5 46 6 0 10 14 10 30 0 17 -4 30
-10 30 -5 0 -10 5 -10 11 0 8 6 7 17 -2 13 -11 17 -11 20 -1 3 6 13 12 24 12
10 0 19 5 19 11 0 6 -7 9 -15 5 -18 -6 -45 2 -45 15 0 5 7 9 16 9 8 0 12 5 9
11 -4 6 -13 8 -21 5 -22 -8 -16 18 7 32 12 8 18 19 15 28 -6 16 10 37 32 41 6
2 12 -4 12 -13 0 -8 -4 -12 -10 -9 -11 7 -14 -8 -4 -18 11 -11 35 5 30 22 -3
9 1 26 8 39 l12 23 19 -21 c24 -26 48 -27 40 0 -5 15 -3 18 8 14 14 -5 35 8
74 45 8 7 12 20 9 28 -3 8 -1 11 4 8 6 -3 10 -13 10 -21 0 -8 5 -12 10 -9 6 4
7 12 3 18 -4 7 0 7 10 -1 9 -8 22 -10 28 -6 9 5 10 2 6 -9 -7 -20 4 -22 21 -5
6 6 15 8 19 4 10 -10 -39 -47 -54 -41 -7 2 -13 -2 -13 -10 0 -9 8 -14 18 -12
9 1 17 6 17 10 0 12 34 29 45 22 5 -3 7 -12 3 -20 -3 -8 -1 -15 4 -15 5 0 10
-6 10 -14 0 -10 -6 -11 -27 -3 -20 8 -32 6 -53 -8 -31 -20 -35 -40 -8 -42 11
-1 21 6 24 18 7 25 29 24 58 -2 l24 -20 -25 7 c-14 4 -31 9 -39 12 -9 3 -12 1
-7 -6 4 -7 16 -12 27 -12 19 0 25 -11 12 -23 -3 -4 -12 -2 -20 4 -10 9 -13 8
-13 -5 0 -9 5 -16 10 -16 6 0 10 -7 10 -17 0 -13 4 -11 20 7 l20 23 20 -23
c11 -13 23 -20 27 -17 9 10 43 -43 43 -67 0 -12 -5 -16 -15 -12 -8 3 -15 0
-15 -6 0 -6 11 -8 31 -4 27 5 28 4 15 -9 -8 -8 -21 -15 -28 -16 -7 0 -3 -4 10
-9 28 -12 29 -30 1 -30 -11 0 -18 -4 -15 -9 4 -5 0 -12 -6 -14 -7 -3 -3 -6 10
-6 37 -2 25 -21 -14 -21 -22 0 -33 -4 -29 -11 4 -6 13 -8 21 -5 7 3 16 1 19
-4 4 -6 -3 -10 -15 -10 -19 0 -20 -2 -7 -20 8 -11 13 -34 11 -50 -3 -25 0 -30
17 -30 15 0 19 -5 15 -16 -3 -9 -6 -18 -6 -20 0 -2 -10 1 -21 8 -17 10 -23 10
-26 1 -3 -7 -12 -13 -20 -13 -11 0 -9 5 7 18 23 19 23 19 -31 18 -51 -1 -54
-3 -54 -26 -1 -27 22 -51 41 -43 7 2 15 -1 20 -8 5 -9 2 -10 -10 -6 -10 4 -19
1 -22 -8 -7 -17 -34 -21 -34 -5 0 5 -7 7 -15 4 -8 -4 -15 -10 -15 -16 0 -5 5
-6 10 -3 6 3 10 3 10 -2 0 -4 11 -8 24 -8 13 0 22 3 20 7 -2 4 0 9 6 13 9 6
14 -7 11 -27 0 -5 5 -8 13 -8 8 0 17 -9 21 -19 7 -24 47 -36 43 -14 -2 9 3 18
10 20 7 3 10 -1 6 -10 -3 -10 3 -17 19 -21 15 -3 27 -15 31 -31 4 -14 11 -25
17 -25 8 0 8 4 0 14 -8 10 -9 16 -1 21 15 9 12 25 -4 25 -9 0 -13 11 -12 34 0
19 4 32 9 29 16 -10 6 14 -13 30 -21 17 -27 37 -11 37 5 0 11 -9 14 -20 5 -21
37 -28 37 -9 0 8 6 7 17 -2 13 -11 17 -11 20 -1 9 26 23 10 22 -25 -1 -24 -3
-29 -6 -15 -3 17 -11 22 -34 22 -26 0 -29 -3 -29 -31 0 -28 3 -31 23 -25 14 3
32 -1 43 -9 18 -13 18 -14 2 -20 -10 -4 -18 -13 -18 -21 0 -7 -8 -18 -17 -23
-16 -9 -15 -10 5 -11 20 0 23 -4 18 -31 -3 -24 -2 -29 7 -20 6 6 19 11 28 11
10 0 21 9 24 20 3 11 11 20 16 20 5 0 7 23 5 53 -4 38 -2 47 5 34 6 -9 8 -21
4 -26 -3 -5 -1 -12 4 -15 14 -9 10 -54 -5 -60 -11 -4 -13 -16 -8 -47 5 -31 4
-40 -4 -35 -7 4 -12 2 -12 -3 0 -6 -7 -11 -15 -11 -8 0 -15 -7 -15 -16 0 -14
3 -14 15 -4 8 7 15 9 15 6 0 -4 9 -2 20 4 11 6 19 19 18 28 -2 11 5 18 20 20
12 2 22 -1 22 -7 0 -6 -7 -11 -15 -11 -8 0 -15 -7 -15 -16 0 -23 -29 -43 -63
-44 -16 0 -26 -4 -22 -10 6 -10 -17 -14 -67 -10 -20 1 -28 -3 -28 -14 0 -21
-10 -20 -25 1 -10 14 -13 10 -19 -28 -6 -41 -10 -46 -50 -64 -25 -11 -44 -22
-43 -26 3 -8 -65 -74 -74 -72 -4 1 -5 -7 -2 -18 4 -13 1 -19 -8 -17 -9 2 -15
-7 -17 -24 -2 -16 2 -28 8 -28 7 0 9 9 6 23 -3 12 -3 16 0 10 7 -15 40 -17 49
-4 3 5 1 12 -5 16 -5 3 -10 11 -10 18 0 7 6 5 15 -4 12 -12 14 -22 6 -41 -8
-21 -7 -26 4 -24 8 1 17 5 21 9 4 3 14 -3 23 -14 9 -11 23 -21 31 -22 21 -4
40 -17 40 -28 0 -6 -4 -8 -8 -5 -5 3 -21 -6 -36 -19 -15 -13 -33 -26 -39 -29
-9 -5 -9 -8 1 -12 17 -8 15 -24 -3 -24 -8 0 -15 -4 -15 -8 0 -13 -98 -111
-104 -105 -3 4 -6 1 -6 -6 0 -6 -11 -16 -25 -21 -22 -8 -27 -18 -24 -47 0 -5
7 -7 15 -7 17 2 18 -19 2 -45 -11 -18 -13 -18 -26 -3 -13 16 -13 16 -8 0 2 -9
-2 -22 -10 -28 -8 -7 -14 -22 -14 -34 0 -11 -4 -27 -9 -34 -6 -10 -10 -9 -14
7 -3 12 -1 19 4 15 11 -6 12 6 1 23 -4 7 -16 11 -27 9 -16 -2 -20 -11 -20 -41
0 -22 -5 -40 -12 -42 -18 -6 -16 -33 2 -33 8 0 15 -4 15 -9 0 -5 -7 -11 -15
-15 -8 -3 -15 -12 -15 -20 0 -10 -6 -13 -15 -10 -20 8 -19 -10 1 -31 13 -12
14 -19 5 -28 -6 -6 -11 -22 -11 -35 0 -13 -4 -20 -10 -17 -5 3 -10 -4 -10 -15
0 -15 5 -20 14 -17 19 7 36 -12 28 -32 -5 -13 -3 -14 9 -4 12 10 18 10 27 1
15 -15 16 -55 2 -63 -5 -3 -10 -10 -10 -16 0 -13 28 -11 32 3 2 6 12 -7 21
-31 11 -27 21 -39 29 -35 8 5 9 2 4 -11 -4 -12 0 -22 14 -32 12 -8 19 -21 16
-29 -4 -10 3 -14 22 -15 17 -1 20 -3 10 -6 -10 -2 -18 -9 -18 -14 0 -5 8 -9
18 -9 14 0 12 -4 -8 -20 -14 -11 -20 -20 -15 -20 6 0 21 9 34 19 23 18 24 18
45 -3 11 -11 19 -29 18 -38 -2 -10 1 -18 7 -18 6 0 8 -6 5 -13 -4 -10 3 -12
26 -9 18 2 30 0 30 -7 0 -6 7 -11 17 -11 21 0 11 -11 -13 -14 -22 -3 -31 -26
-11 -26 9 0 17 6 19 12 3 9 9 8 21 -4 10 -10 14 -23 10 -34 -5 -14 -3 -16 11
-11 21 8 81 -46 71 -64 -4 -6 0 -9 10 -7 10 2 20 -3 23 -10 3 -10 -4 -12 -27
-9 -22 4 -31 1 -31 -9 0 -8 3 -13 8 -13 36 6 52 -3 53 -28 2 -24 2 -25 6 -5 3
14 12 22 25 22 17 0 18 -3 8 -15 -12 -15 -4 -59 10 -50 11 7 40 -40 39 -62 0
-13 -3 -12 -10 6 -15 38 -69 70 -69 41 0 -5 6 -10 14 -10 8 0 12 -10 11 -28
-3 -42 -4 -43 -25 -32 -17 9 -19 8 -13 -7 3 -10 18 -28 32 -40 25 -22 26 -23
7 -38 -14 -10 -16 -15 -6 -15 8 0 4 -7 -10 -17 -14 -9 -26 -17 -28 -19 -2 -1
4 -13 13 -27 11 -17 13 -27 6 -32 -6 -3 -11 2 -11 12 0 14 -2 15 -9 5 -4 -8
-14 -13 -22 -12 -8 1 -21 2 -29 1 -13 -1 -13 -2 0 -11 11 -8 12 -12 3 -18 -9
-6 -7 -11 7 -20 13 -8 20 -9 20 -1 0 5 4 7 10 4 5 -3 -2 -16 -16 -28 -19 -17
-26 -32 -26 -60 0 -24 -4 -37 -11 -34 -7 2 -11 15 -9 27 1 13 -1 21 -5 17 -3
-4 -17 2 -29 14 -17 15 -24 17 -30 8 -4 -7 -3 -14 4 -17 13 -4 17 -23 5 -21
-22 4 -32 -3 -27 -16 5 -11 -1 -15 -19 -15 -18 0 -28 8 -37 30 -15 36 -30 30
-30 -12 0 -22 4 -29 14 -25 25 10 86 -15 86 -35 0 -10 4 -18 9 -18 5 0 8 -8 7
-17 -1 -21 -29 -35 -52 -26 -12 4 -14 0 -8 -21 5 -20 2 -26 -10 -26 -10 0 -16
-7 -14 -17 2 -12 -7 -20 -32 -27 -19 -5 -38 -15 -42 -20 -5 -7 -8 -7 -8 1 0
17 -48 12 -55 -5 -3 -8 -3 -18 1 -23 3 -5 -9 -9 -27 -9 -27 0 -30 2 -19 15 9
11 15 13 20 5 5 -8 9 -6 14 5 11 29 -4 36 -27 11 -12 -12 -29 -26 -37 -29 -8
-3 -10 -6 -4 -6 8 -1 7 -12 -4 -34 -12 -27 -19 -33 -38 -29 -19 3 -24 0 -24
-17 0 -12 -6 -21 -15 -21 -8 0 -15 7 -15 15 0 8 -7 15 -15 15 -18 0 -20 -17
-3 -22 6 -2 8 -10 4 -16 -9 -15 -46 -16 -46 -1 0 5 -4 7 -10 4 -6 -3 -10 4
-11 17 0 13 -3 17 -6 10 -4 -10 -8 -10 -19 -1 -11 9 -15 8 -20 -5 -3 -9 -14
-16 -23 -16 -13 0 -14 -2 -1 -9 8 -6 17 -8 21 -5 4 2 10 0 13 -5 10 -15 -8
-21 -64 -22 -47 -2 -51 -3 -46 -23 5 -21 5 -21 -10 -1 -9 11 -20 19 -25 17 -6
-1 -8 2 -4 8 3 5 1 10 -4 10 -6 0 -10 5 -8 11 1 6 -4 14 -11 16 -7 3 -13 -1
-11 -8 1 -8 0 -27 -1 -44 -2 -22 -4 -25 -7 -10 -3 11 -12 24 -20 30 -8 6 -16
23 -16 38 -1 15 -5 27 -9 27 -5 0 -8 10 -8 23 0 26 -17 47 -37 47 -8 0 -42
-29 -76 -65 l-61 -66 -56 5 c-67 6 -225 -10 -300 -30 -30 -9 -72 -20 -93 -25
-20 -5 -54 -18 -75 -29 -20 -11 -42 -20 -49 -20 -8 0 -21 -4 -31 -9 -73 -41
-186 -82 -208 -77 -14 4 -22 11 -19 16 3 6 2 10 -4 10 -5 0 -12 -6 -14 -12 -3
-7 -6 3 -6 23 -1 24 -7 39 -17 43 -8 3 -13 10 -10 15 9 14 -27 47 -46 43 -13
-2 -16 1 -12 12 4 10 1 16 -7 16 -7 0 -5 6 7 14 11 8 15 18 10 23 -5 4 -11 2
-13 -4 -3 -7 -8 -13 -13 -13 -13 0 -18 36 -8 54 6 11 5 16 -3 16 -6 0 -8 7 -5
16 7 19 -10 44 -27 40 -7 -1 -9 -1 -4 1 17 10 5 32 -23 38 -32 7 -51 26 -32
33 7 2 12 11 12 20 0 12 -3 13 -8 5 -5 -8 -13 -9 -22 -3 -10 7 -11 10 -2 10 6
0 12 11 12 25 0 14 -4 25 -9 25 -5 0 -12 10 -16 23 -4 13 -8 17 -12 9 -3 -8
-12 -4 -26 14 -17 22 -18 30 -8 46 10 16 8 24 -9 47 -11 16 -20 35 -20 43 -1
7 -7 24 -15 38 -11 19 -14 21 -15 8 0 -10 -6 -18 -12 -18 -9 0 -13 17 -13 53
0 41 -6 60 -28 88 -15 20 -27 43 -27 51 0 8 -9 23 -20 33 -11 10 -20 28 -20
41 0 34 -32 94 -48 92 -8 -2 -22 11 -32 29 -12 22 -20 29 -27 22 -8 -8 -13 -7
-17 0 -12 18 4 31 30 25 27 -7 32 7 9 26 -8 7 -15 18 -15 26 0 18 -34 35 -54
28 -25 -9 -19 12 7 24 12 6 17 11 10 11 -7 1 -10 8 -6 19 5 15 4 14 -9 -2 -20
-25 -33 -5 -17 26 9 17 9 24 -5 33 -8 7 -13 14 -10 17 2 3 -6 8 -20 10 -22 4
-24 3 -16 -13 14 -26 12 -39 -5 -33 -8 4 -15 1 -15 -5 0 -6 7 -11 16 -11 9 0
14 -6 12 -12 -3 -7 -12 -12 -21 -12 -10 1 -24 2 -32 3 -20 1 -19 21 1 21 10 0
14 7 12 18 -2 9 -9 16 -15 15 -6 -1 -8 9 -5 22 2 14 8 23 12 20 11 -7 47 39
42 53 -3 10 -7 10 -18 1 -11 -9 -14 -7 -14 10 0 11 3 20 8 18 4 -1 8 3 9 8 1
6 -6 10 -15 9 -11 0 -18 8 -18 23 -2 19 1 22 12 12 8 -7 14 -7 14 -1 0 5 -7
15 -15 22 -8 7 -12 17 -9 22 4 5 -2 8 -11 6 -10 -1 -19 -12 -21 -22 -1 -10
-10 -26 -18 -35 -15 -14 -16 -14 -16 3 0 12 -6 16 -22 14 -25 -4 -32 -17 -18
-38 8 -12 11 -13 19 -1 6 9 11 10 15 2 4 -6 12 -9 17 -6 5 4 9 -4 9 -16 0 -17
-3 -20 -12 -11 -8 8 -17 8 -30 1 -22 -12 -15 -31 9 -22 13 5 15 2 10 -11 -5
-13 -3 -17 7 -13 8 3 17 1 20 -6 2 -7 5 0 5 15 1 19 6 26 18 24 19 -3 32 -46
14 -46 -6 0 -11 -7 -11 -16 0 -9 -8 -30 -17 -46 -14 -24 -15 -32 -5 -35 10 -4
10 -8 1 -19 -6 -8 -16 -14 -21 -14 -6 0 -5 7 2 15 9 11 9 15 1 15 -8 0 -9 5
-1 19 7 14 7 22 -2 27 -6 4 -8 3 -5 -3 8 -13 -29 -47 -42 -39 -6 4 -8 13 -4
21 4 11 1 13 -11 9 -27 -10 -18 -39 15 -51 34 -13 35 -36 1 -41 -26 -4 -27 -8
-7 -28 8 -9 15 -21 14 -27 0 -9 -2 -8 -6 1 -8 21 -23 13 -23 -13 0 -14 8 -29
20 -35 15 -8 20 -8 20 2 0 9 3 9 10 -2 7 -12 12 -12 22 -2 6 6 20 12 30 12 17
0 17 -2 0 -34 -9 -18 -23 -31 -29 -29 -7 3 -13 0 -13 -6 0 -6 7 -11 15 -11 8
0 15 -5 15 -10 0 -17 -27 -22 -51 -10 -19 11 -24 10 -35 -5 -14 -19 -64 -14
-64 6 0 6 4 7 10 4 5 -3 10 3 10 15 0 12 -4 18 -10 15 -5 -3 -10 -1 -10 4 0 6
-5 11 -11 11 -6 0 -8 -8 -4 -19 4 -12 0 -21 -11 -25 -24 -9 -40 9 -25 28 22
26 -5 53 -56 55 -25 0 -42 -3 -39 -8 4 -5 0 -12 -6 -15 -7 -3 11 -4 40 -1 47
5 52 3 52 -15 0 -11 -7 -20 -15 -20 -8 0 -15 -4 -15 -10 0 -5 7 -10 15 -10 8
0 15 -9 15 -20 0 -13 -7 -20 -20 -20 -11 0 -20 -4 -20 -10 0 -9 25 -4 45 10
24 17 44 19 38 5 -3 -8 -10 -12 -16 -8 -6 4 -8 0 -4 -10 4 -11 -3 -24 -20 -37
-15 -11 -27 -29 -28 -38 -3 -39 -29 -90 -42 -85 -8 3 -12 12 -9 20 4 10 0 13
-11 11 -29 -5 -26 -27 6 -45 34 -20 40 -33 14 -33 -15 0 -15 -2 2 -14 11 -7
31 -17 45 -21 32 -10 60 -42 53 -61 -3 -8 5 -23 18 -34 17 -14 19 -18 7 -14
-11 4 -18 1 -18 -7 0 -9 -3 -10 -11 -2 -7 7 -21 8 -40 3 -26 -8 -29 -6 -29 13
0 18 2 19 10 7 8 -12 10 -12 16 3 3 10 4 21 0 24 -3 3 -1 12 5 20 9 9 8 13 0
13 -6 0 -16 -10 -21 -22 -5 -13 -9 -17 -9 -10 -1 9 -6 10 -18 3 -10 -5 -31
-10 -48 -12 -16 -2 -35 -7 -41 -11 -7 -5 -17 -2 -24 7 -21 26 -30 17 -30 -31
0 -33 5 -51 18 -60 10 -8 12 -13 5 -14 -7 0 -13 -9 -13 -21 0 -15 4 -19 16
-15 9 3 22 6 30 6 8 0 11 6 7 16 -5 13 -2 15 15 10 14 -5 24 -1 31 11 10 17
10 17 11 0 0 -27 -38 -56 -85 -63 -31 -6 -35 -9 -20 -14 24 -9 76 7 92 28 12
14 13 14 14 -1 2 -30 4 -35 11 -43 5 -4 8 -3 8 2 0 5 9 10 20 11 14 1 20 -4
20 -18 0 -16 -4 -19 -20 -14 -18 6 -20 3 -14 -21 5 -19 4 -25 -5 -20 -6 4 -11
16 -11 26 0 14 -5 18 -16 13 -13 -5 -15 -2 -10 15 6 17 4 21 -8 16 -8 -3 -12
-12 -9 -20 7 -19 -27 -31 -38 -13 -7 11 -13 9 -29 -11 -23 -30 -28 -100 -6
-100 12 0 12 -4 0 -30 -9 -16 -13 -42 -11 -57 4 -26 4 -26 6 5 1 41 16 42 19
0 2 -17 8 -38 14 -45 8 -10 7 -13 -5 -13 -10 0 -14 -7 -10 -22 3 -17 2 -19 -5
-9 -8 10 -11 11 -17 1 -5 -8 -1 -18 8 -25 10 -7 17 -17 17 -24 0 -6 5 -11 11
-11 6 0 9 7 5 15 -5 13 -2 14 16 4 18 -10 20 -9 15 5 -5 13 -3 14 12 4 27 -17
10 -67 -23 -68 -6 0 -1 6 10 14 11 8 15 18 10 23 -5 4 -11 2 -13 -4 -3 -7 -15
-13 -28 -13 -31 0 -43 -20 -13 -21 22 -1 22 -2 -4 -12 l-26 -10 -2 -714 -1
-713 3036 0 3035 0 0 1521 0 1520 -22 -7 c-50 -15 -317 -151 -377 -192 -85
-58 -286 -158 -334 -167 -31 -5 -37 -10 -32 -24 3 -10 -1 -42 -9 -72 -8 -30
-15 -45 -15 -34 -1 17 -3 17 -11 5 -8 -12 -10 -9 -10 14 0 21 4 27 15 22 9 -3
15 0 15 10 0 8 -4 13 -9 10 -5 -3 -11 3 -14 14 -3 11 -2 18 3 15 10 -6 22 24
14 36 -3 5 0 9 6 9 7 0 9 7 6 16 -4 10 -1 14 6 11 25 -8 58 58 58 116 0 61 -7
73 -29 53 -11 -10 -21 -12 -31 -5 -13 8 -13 10 0 20 11 8 12 12 3 16 -18 7
-16 26 2 20 8 -4 17 -2 20 3 3 5 -4 11 -15 15 -16 5 -20 13 -17 39 2 17 6 37
10 43 4 6 -2 13 -14 16 -14 4 -18 2 -11 -6 5 -7 6 -21 1 -32 -9 -23 -9 -22
-15 24 -3 23 1 40 12 53 16 17 16 19 1 36 -10 10 -17 31 -17 45 0 15 -3 27 -7
27 -5 0 -9 11 -9 25 -2 21 1 25 18 19 14 -4 19 -2 16 6 -2 7 -19 18 -38 24
-18 6 -35 17 -36 24 -1 7 0 8 2 3 7 -13 34 -2 34 14 0 7 6 16 13 19 6 3 0 4
-15 2 -32 -4 -38 10 -8 19 22 7 27 31 8 38 -18 6 2 39 30 52 28 13 28 27 0 23
-12 -2 -23 3 -26 11 -3 10 0 12 11 8 10 -4 17 1 20 14 3 10 12 19 21 19 12 0
16 -11 16 -47 0 -27 3 -59 6 -73 4 -18 3 -21 -4 -11 -7 9 -12 10 -16 2 -9 -14
2 -33 14 -26 14 9 23 -16 11 -28 -14 -14 -14 -54 -1 -62 5 -3 8 -21 5 -40 -2
-19 0 -37 5 -40 6 -4 10 15 10 44 0 28 4 51 9 51 4 0 11 28 14 63 6 67 37 209
48 217 3 3 6 12 6 20 1 8 4 31 8 50 4 19 8 40 9 47 1 7 5 16 9 19 4 4 7 20 7
36 0 15 4 28 8 28 5 0 9 6 10 13 8 102 39 347 48 384 4 15 11 33 15 39 13 16
19 186 8 200 -5 6 -11 50 -13 97 -3 47 -9 95 -15 106 -6 11 -11 29 -11 40 0
12 -4 21 -10 21 -5 0 -13 18 -16 40 -4 22 -11 43 -15 46 -5 3 -9 13 -9 23 0
10 -7 24 -15 31 -9 7 -14 19 -11 27 3 7 1 13 -4 13 -5 0 -19 18 -31 40 -13 22
-26 40 -31 40 -4 0 -8 6 -8 13 0 6 -15 26 -34 44 -19 17 -32 34 -29 37 4 3 2
6 -4 6 -5 0 -21 9 -34 21 -19 16 -21 22 -9 29 12 7 11 12 -4 29 -18 20 -18 48
-1 94 5 11 2 17 -8 17 -11 0 -13 6 -9 22 4 16 2 19 -8 13 -8 -5 -11 -4 -6 3 3
6 -5 27 -19 48 -14 20 -25 48 -25 61 0 14 -4 21 -10 18 -6 -3 -10 5 -10 19 0
16 -15 41 -41 68 -22 24 -44 53 -49 64 -5 12 -22 28 -39 35 -17 8 -31 17 -31
20 0 4 -29 26 -65 50 -36 23 -65 46 -65 51 0 4 -6 8 -13 8 -7 0 -46 27 -87 60
-41 33 -82 60 -90 60 -8 0 -31 10 -50 21 -19 12 -70 37 -115 56 -44 19 -96 42
-115 52 -19 10 -71 29 -115 41 -44 13 -84 27 -90 31 -14 10 -154 59 -168 59
-7 0 -6 -4 3 -11 11 -8 7 -9 -15 -3 -42 11 -606 14 -599 3z m-700 -974 c-4
-42 -14 -55 -26 -35 -13 20 -12 30 0 30 6 0 10 9 10 20 0 11 4 20 9 20 5 0 8
-16 7 -35z m38 18 c4 -9 3 -20 -2 -25 -6 -6 -11 1 -14 16 -6 29 6 35 16 9z
m-118 -51 c-10 -10 -29 15 -21 28 6 9 10 8 17 -4 6 -10 7 -20 4 -24z m296 1
c3 -15 4 -15 20 0 16 16 18 16 27 -1 6 -11 6 -24 -1 -36 -12 -21 -3 -33 14
-19 9 8 20 4 38 -13 18 -17 20 -24 9 -24 -8 0 -21 6 -27 12 -10 10 -15 10 -22
-2 -6 -9 -5 -17 1 -21 14 -8 7 -51 -9 -57 -7 -2 -12 0 -11 5 3 20 -2 27 -11
13 -7 -11 -12 -12 -21 -3 -15 15 -1 36 20 30 14 -3 17 1 13 19 -4 24 -22 34
-22 13 0 -8 -5 -7 -15 1 -9 7 -14 18 -12 25 3 6 -1 19 -9 30 -8 10 -14 25 -14
32 0 19 28 16 32 -4z m226 6 c-2 -6 -8 -10 -13 -10 -5 0 -11 4 -13 10 -2 6 4
11 13 11 9 0 15 -5 13 -11z m-148 -24 c0 -8 -4 -15 -10 -15 -5 0 -7 7 -4 15 4
8 8 15 10 15 2 0 4 -7 4 -15z m50 -36 c0 -14 -17 -10 -23 5 -4 10 -1 13 9 9 7
-3 14 -9 14 -14z m90 -18 c0 -5 -9 -11 -20 -14 -13 -3 -20 0 -20 9 0 8 9 14
20 14 11 0 20 -4 20 -9z m1956 -18 c-10 -10 -19 5 -10 18 6 11 8 11 12 0 2 -7
1 -15 -2 -18z m-29 11 c-3 -3 2 -14 11 -24 15 -18 16 -18 35 3 l19 22 -7 -28
c-4 -15 -4 -35 0 -44 5 -10 7 -28 6 -40 -2 -15 3 -23 13 -23 11 0 16 10 17 33
0 32 0 32 12 7 6 -14 15 -28 20 -31 5 -4 10 -18 10 -32 1 -14 5 -23 10 -20 4
2 7 -8 7 -22 0 -18 -6 -29 -20 -32 -24 -6 -26 -19 -5 -27 16 -6 20 -33 7 -53
-10 -16 -44 -20 -49 -5 -3 7 1 11 9 10 7 -2 13 4 13 12 0 9 -7 14 -17 12 -10
-2 -18 1 -18 6 0 5 -12 14 -26 20 -29 14 -24 32 9 32 25 0 33 36 10 44 -7 3
-13 -2 -13 -10 0 -11 -6 -14 -16 -10 -11 4 -18 -1 -21 -14 -8 -29 -27 -19 -31
14 -2 17 0 26 6 22 6 -3 17 1 25 9 9 9 17 11 20 5 3 -6 4 -5 3 2 -2 7 -8 14
-14 14 -7 1 -19 2 -28 3 -8 0 -12 6 -9 11 4 6 11 7 17 4 6 -4 14 0 19 7 7 12
9 11 9 -1 0 -13 2 -13 9 -1 7 10 4 19 -7 27 -13 9 -19 9 -24 1 -5 -7 -8 0 -8
16 0 21 -5 27 -22 27 -17 0 -19 3 -10 12 7 7 12 20 12 30 0 10 5 18 12 18 6 0
9 -3 5 -6z m-27 -19 c0 -8 -7 -15 -15 -15 -13 0 -14 3 -3 15 16 18 18 18 18 0z
m-1938 -76 c-9 -10 -17 -19 -18 -19 -1 0 4 43 5 47 1 1 7 0 15 -3 12 -5 12 -9
-2 -25z m1938 27 c0 -11 -19 -15 -25 -6 -3 5 1 10 9 10 9 0 16 -2 16 -4z
m-2006 -31 c-4 -8 -12 -15 -20 -15 -17 0 -18 17 -1 23 22 9 27 7 21 -8z m6
-45 c0 -5 -4 -10 -10 -10 -5 0 -10 5 -10 10 0 6 5 10 10 10 6 0 10 -4 10 -10z
m150 -21 c0 -6 -4 -7 -10 -4 -5 3 -10 11 -10 16 0 6 5 7 10 4 6 -3 10 -11 10
-16z m2050 -73 c0 -2 -7 -9 -15 -16 -13 -11 -14 -10 -9 4 5 14 24 23 24 12z
m-173 -58 c-3 -8 -6 -5 -6 6 -1 11 2 17 5 13 3 -3 4 -12 1 -19z m203 -37 c5
-19 8 -35 7 -35 -1 -1 -13 -7 -26 -14 -37 -21 -43 -3 -32 96 2 24 41 -11 51
-47z m-2250 -12 c0 -5 6 -7 13 -4 6 4 4 0 -5 -8 -22 -17 -23 -27 -3 -27 8 0
15 -4 15 -8 0 -4 -9 -8 -20 -8 -16 0 -20 7 -20 33 0 18 5 33 10 33 6 0 10 -5
10 -11z m2150 -24 c0 -16 -6 -25 -16 -25 -12 0 -14 -7 -9 -29 4 -17 2 -32 -5
-36 -17 -10 -25 2 -12 18 7 8 10 16 8 18 -8 10 -15 69 -7 64 5 -3 12 -1 16 5
11 18 25 10 25 -15z m45 -25 c6 -20 35 -28 35 -10 0 5 6 7 14 4 21 -8 29 -63
11 -81 -9 -9 -15 -10 -15 -3 0 7 -8 9 -20 5 -20 -6 -25 5 -22 49 2 12 -3 16
-13 12 -11 -4 -15 1 -15 19 0 30 16 33 25 5z m-25 -61 c0 -14 -17 -10 -23 5
-4 10 -1 13 9 9 7 -3 14 -9 14 -14z m-7 -39 c3 -11 1 -23 -4 -26 -5 -3 -9 6
-9 20 0 31 6 34 13 6z m42 -10 c3 -5 2 -10 -4 -10 -5 0 -13 5 -16 10 -3 6 -2
10 4 10 5 0 13 -4 16 -10z m51 -14 c22 -23 17 -41 -18 -54 -17 -6 -33 -10 -35
-8 -6 5 25 76 32 76 4 0 13 -6 21 -14z m-2336 -20 c0 -3 -4 -8 -10 -11 -5 -3
-10 -1 -10 4 0 6 5 11 10 11 6 0 10 -2 10 -4z m2220 -6 c0 -5 -4 -10 -10 -10
-5 0 -10 5 -10 10 0 6 5 10 10 10 6 0 10 -4 10 -10z m48 -38 c2 -7 -3 -12 -12
-12 -9 0 -16 7 -16 16 0 17 22 14 28 -4z m117 -12 c4 -16 11 -32 16 -35 5 -4
9 -14 9 -24 0 -15 -9 -18 -51 -18 -33 -1 -47 2 -38 8 8 4 24 6 35 3 12 -3 25
-1 28 5 4 6 2 11 -3 11 -6 0 -11 6 -11 14 0 8 -9 21 -21 29 -20 14 -20 16 -2
26 27 16 31 14 38 -19z m-105 -22 c0 -4 -7 -8 -15 -8 -8 0 -15 4 -15 8 0 5 7
9 15 9 8 0 15 -4 15 -9z m50 -14 c0 -16 -2 -16 -24 -8 -8 3 -12 12 -10 19 7
17 34 8 34 -11z m24 1 c3 -8 1 -15 -4 -15 -6 0 -10 7 -10 15 0 8 2 15 4 15 2
0 6 -7 10 -15z m-2138 -16 c4 -8 9 -7 15 2 6 10 8 8 7 -8 -2 -14 -7 -19 -17
-15 -9 3 -12 1 -7 -6 3 -6 2 -13 -3 -16 -9 -6 -21 16 -21 40 0 17 16 19 26 3z
m2064 -36 c0 -13 -4 -23 -10 -23 -5 0 -10 17 -10 38 0 27 3 33 10 22 5 -8 10
-25 10 -37z m55 -13 c3 -5 11 -10 16 -10 6 0 7 4 4 10 -3 6 1 7 9 4 9 -3 16
-13 16 -21 0 -10 -9 -14 -32 -11 -33 3 -51 15 -42 30 7 11 22 10 29 -2z m-285
-10 c0 -5 -4 -10 -10 -10 -5 0 -10 5 -10 10 0 6 5 10 10 10 6 0 10 -4 10 -10z
m360 1 c0 -6 -4 -13 -10 -16 -5 -3 -10 1 -10 9 0 9 5 16 10 16 6 0 10 -4 10
-9z m-2080 -11 c0 -5 -4 -10 -10 -10 -5 0 -10 5 -10 10 0 6 5 10 10 10 6 0 10
-4 10 -10z m75 -38 c-8 -8 -25 10 -19 20 4 6 9 5 15 -3 4 -7 6 -15 4 -17z
m1741 -7 c8 -13 13 -29 9 -35 -10 -16 -25 -1 -25 25 0 13 -6 26 -12 28 -10 4
-10 6 -1 6 7 1 20 -10 29 -24z m216 2 c-5 -7 -12 -24 -16 -39 -3 -16 -13 -28
-21 -28 -12 0 -12 -3 2 -20 10 -11 23 -20 30 -20 9 0 11 -10 6 -32 -8 -44 -10
-45 -24 -14 -7 15 -18 25 -26 22 -7 -3 -13 -1 -13 3 0 5 6 11 12 13 9 3 8 9
-4 22 -10 9 -14 24 -11 33 5 13 1 15 -20 11 -15 -3 -27 -2 -27 2 0 4 11 10 25
12 14 3 25 2 25 -1 0 -4 8 -7 18 -7 14 0 17 7 14 26 -3 20 1 26 18 27 15 1 19
-2 12 -10z m53 -17 c3 -5 -1 -10 -10 -10 -9 0 -13 5 -10 10 3 6 8 10 10 10 2
0 7 -4 10 -10z m-2060 -10 c3 -5 1 -10 -4 -10 -6 0 -11 5 -11 10 0 6 2 10 4
10 3 0 8 -4 11 -10z m1565 6 c0 -3 -4 -8 -10 -11 -5 -3 -10 -1 -10 4 0 6 5 11
10 11 6 0 10 -2 10 -4z m290 0 c0 -3 -4 -8 -10 -11 -5 -3 -10 -1 -10 4 0 6 5
11 10 11 6 0 10 -2 10 -4z m-143 -38 c-3 -7 -5 -2 -5 12 0 14 2 19 5 13 2 -7
2 -19 0 -25z m53 10 c0 -19 -2 -20 -10 -8 -13 19 -13 30 0 30 6 0 10 -10 10
-22z m-78 -13 c3 -14 2 -25 -2 -25 -4 0 -10 11 -12 25 -3 14 -2 25 2 25 4 0
10 -11 12 -25z m-24 -22 c9 -13 10 -19 1 -22 -8 -2 -8 -5 1 -11 15 -9 52 -1
45 10 -3 4 6 7 19 6 13 0 22 -4 19 -8 -2 -5 0 -8 6 -8 6 0 13 11 17 25 7 30
12 31 30 8 13 -17 13 -17 14 0 0 9 2 17 4 17 2 0 11 3 20 6 12 5 16 -1 16 -24
0 -36 -9 -62 -21 -62 -5 0 -9 8 -9 18 0 14 -2 15 -10 2 -6 -10 -10 -11 -10 -2
0 15 -10 15 -30 2 -13 -9 -13 -12 3 -24 14 -11 17 -22 13 -43 -3 -15 -2 -35 4
-43 7 -11 10 -1 10 35 l1 50 20 -28 c11 -15 26 -24 32 -20 7 4 3 9 -9 14 -18
7 -18 8 4 15 13 4 22 15 23 28 1 17 2 17 6 4 2 -10 12 -18 21 -18 10 0 23 -9
30 -20 7 -11 8 -20 3 -20 -5 0 -12 8 -16 18 -6 16 -7 16 -20 -1 -10 -13 -14
-15 -18 -5 -4 9 -6 9 -6 1 -1 -7 5 -18 12 -25 8 -7 12 -20 10 -29 -3 -10 4
-22 16 -28 16 -9 21 -9 21 1 0 8 5 6 11 -4 15 -27 26 -21 24 12 -2 35 5 43 25
29 11 -6 12 -9 2 -9 -7 0 -10 -4 -7 -10 3 -5 2 -10 -4 -10 -7 0 -7 -8 -1 -24
5 -13 6 -27 3 -30 -10 -10 30 -47 44 -42 7 3 13 -1 13 -9 0 -8 -4 -15 -10 -15
-5 0 -10 -11 -10 -25 0 -14 5 -25 10 -25 6 0 10 -7 10 -15 0 -8 -7 -15 -15
-15 -8 0 -15 -7 -15 -15 0 -8 6 -14 12 -13 7 2 14 -7 16 -19 2 -13 -1 -23 -7
-23 -6 0 -11 -17 -12 -37 -1 -39 -3 -38 -13 10 -4 15 -10 25 -15 22 -11 -6
-21 18 -22 53 0 24 -1 25 -8 7 -7 -16 -9 -13 -13 18 -3 28 0 41 11 47 14 8 14
9 -1 10 -21 0 -24 16 -5 23 6 2 9 8 5 12 -4 4 -14 0 -23 -8 -22 -22 -40 -12
-41 23 -1 16 -7 37 -15 46 -8 10 -15 25 -15 36 -2 30 -3 31 -19 18 -13 -10
-15 -9 -16 11 l0 24 -9 -22 c-12 -29 -21 -29 -49 1 -13 14 -32 26 -43 28 -25
4 -23 24 2 21 14 -2 18 2 13 15 -4 13 -2 13 10 -3 13 -16 16 -17 17 -4 0 26
-33 48 -65 45 -42 -5 -42 -5 -25 -16 8 -5 12 -12 9 -15 -9 -9 -59 17 -58 29 3
29 -2 37 -21 31 -15 -5 -20 -2 -20 13 0 10 3 21 6 25 10 10 49 -2 62 -20z
m382 6 c0 -5 -9 -9 -20 -9 -19 0 -26 11 -14 23 8 8 34 -3 34 -14z m-100 -139
c0 -5 -4 -10 -10 -10 -5 0 -10 5 -10 10 0 6 5 10 10 10 6 0 10 -4 10 -10z
m-20 -194 c0 -3 -4 -8 -10 -11 -5 -3 -10 -1 -10 4 0 6 5 11 10 11 6 0 10 -2
10 -4z m-2177 -156 c-3 -10 -8 -19 -12 -18 -26 3 -41 -8 -65 -47 -28 -43 -46
-57 -46 -35 0 6 10 21 23 34 13 13 21 28 19 34 -2 7 3 12 12 12 9 0 16 6 16
14 0 8 12 17 28 19 15 2 28 5 29 6 0 0 -1 -8 -4 -19z m117 -146 c0 -26 -34
-35 -70 -20 -27 12 -30 46 -5 46 8 0 17 9 20 20 6 20 7 20 31 -2 13 -13 24
-33 24 -44z m2160 46 c0 -5 -5 -10 -11 -10 -5 0 -7 5 -4 10 3 6 8 10 11 10 2
0 4 -4 4 -10z m-2465 -30 c3 -5 1 -10 -4 -10 -6 0 -11 5 -11 10 0 6 2 10 4 10
3 0 8 -4 11 -10z m1145 -10 c13 -8 13 -10 -2 -10 -9 0 -20 5 -23 10 -8 13 5
13 25 0z m-10 -42 c7 -18 9 -19 9 -5 2 33 18 17 25 -23 3 -22 11 -40 16 -40 6
0 9 -3 9 -7 -5 -30 3 -53 19 -53 16 -1 16 -1 0 -11 -18 -10 -25 -30 -10 -28
19 3 33 -2 27 -10 -3 -5 -1 -12 5 -16 5 -3 10 -13 10 -20 0 -11 -8 -13 -29 -9
-17 4 -32 1 -36 -6 -5 -9 -1 -10 15 -5 19 6 22 4 17 -9 -4 -9 -3 -16 2 -16 24
0 41 -161 20 -190 -8 -12 -10 -10 -5 10 3 14 2 43 -2 65 -6 36 -7 33 -12 -35
-5 -79 -2 -113 9 -106 4 3 7 -5 8 -17 0 -12 -1 -16 -4 -9 -6 15 -23 6 -23 -14
0 -8 7 -14 15 -14 8 0 15 -6 15 -14 0 -9 -7 -12 -20 -9 -15 4 -20 0 -20 -15 0
-32 -11 -52 -29 -53 -10 0 -11 -2 -3 -6 6 -2 10 -9 6 -14 -3 -5 0 -9 6 -9 6 0
21 -9 32 -20 18 -16 21 -30 19 -67 -2 -38 0 -45 11 -36 10 9 14 1 16 -43 2
-40 0 -54 -10 -52 -14 3 -15 -15 -3 -44 4 -11 3 -18 -5 -18 -6 0 -9 4 -5 9 9
16 -16 25 -27 10 -7 -10 -9 -8 -5 8 5 22 -15 38 -41 34 -8 -1 -20 5 -26 15 -8
10 -20 15 -30 11 -9 -4 -16 -2 -16 4 0 5 7 12 16 16 12 4 14 14 9 43 -4 21 -2
41 3 44 10 6 4 55 -7 57 -37 7 -85 11 -126 13 -48 1 -50 0 -56 -29 -4 -16 -7
-26 -8 -21 0 5 -12 -1 -25 -13 -18 -17 -25 -19 -29 -9 -4 9 -6 7 -6 -4 -1 -10
-5 -18 -11 -18 -9 0 -11 7 -10 38 0 4 9 7 19 7 11 0 23 3 27 8 4 4 0 7 -9 7
-10 0 -18 8 -18 18 -1 15 -2 14 -6 -2 -4 -15 -7 -16 -15 -5 -8 11 -9 10 -4 -3
6 -21 0 -23 -18 -6 -15 14 -2 68 17 68 6 0 7 3 4 7 -4 3 0 15 10 25 15 17 15
18 -5 18 -12 0 -22 -6 -22 -13 0 -7 -8 -13 -18 -13 -11 0 -17 9 -18 26 -1 14
1 19 3 13 3 -7 9 -13 15 -13 6 0 8 7 4 15 -4 12 -2 13 13 5 16 -8 20 -5 24 16
3 16 -1 28 -9 31 -8 3 -14 12 -14 20 0 8 4 12 9 9 5 -3 14 8 20 24 6 18 6 30
0 30 -5 0 -9 14 -9 31 0 17 4 28 10 24 6 -3 11 4 11 17 1 16 4 12 9 -12 4 -19
8 -27 9 -17 1 18 21 24 21 6 0 -5 5 -7 10 -4 6 3 11 27 11 53 1 26 4 36 6 22
2 -14 11 -30 20 -37 8 -6 12 -16 8 -22 -3 -6 -2 -11 4 -11 19 0 24 23 7 32
-24 14 -19 26 9 20 13 -2 36 -1 50 2 25 6 25 7 10 36 -9 17 -21 27 -29 24 -7
-3 -16 2 -20 12 -5 12 -2 15 11 9 33 -12 38 -10 35 15 -2 14 -13 32 -24 41
-15 12 -19 22 -13 35 7 18 8 18 12 2 3 -10 9 -18 14 -18 6 0 8 4 4 9 -3 5 4
13 16 16 17 6 19 9 8 16 -10 6 -11 9 -1 9 6 0 12 7 12 15 0 8 -8 15 -19 15
-22 0 -45 25 -36 40 3 5 18 11 33 11 17 1 21 3 10 6 -24 6 -22 20 7 55 14 16
25 27 25 23 0 -3 8 -1 18 4 25 15 32 13 42 -11z m-968 -23 c15 -13 37 -27 48
-30 11 -4 17 -11 14 -17 -4 -6 -2 -13 3 -17 11 -7 27 -91 18 -91 -3 0 -19 7
-35 15 -27 14 -30 14 -30 0 0 -10 -5 -13 -12 -9 -8 5 -9 2 -5 -9 3 -10 2 -17
-4 -17 -6 0 -8 -4 -5 -9 3 -5 -1 -11 -9 -15 -9 -3 -12 -12 -8 -23 5 -14 3 -16
-7 -6 -7 6 -10 18 -8 25 3 7 6 15 6 18 0 3 5 16 10 30 7 19 6 31 -4 45 -13 18
-14 18 -15 -6 -1 -15 -3 -18 -6 -7 -2 9 -17 21 -34 27 -37 13 -38 23 -2 19 20
-2 29 2 31 15 2 10 -3 17 -12 17 -16 0 -21 25 -11 52 9 22 46 19 77 -7z m1034
-1 c2 -12 -1 -13 -12 -3 -7 6 -11 16 -8 21 7 11 17 3 20 -18z m1147 -39 c-3
-9 -8 -14 -10 -11 -3 3 -2 9 2 15 9 16 15 13 8 -4z m-2336 -83 c8 -31 9 -31
21 -12 10 17 10 20 -3 20 -8 0 -15 5 -15 10 0 13 10 12 40 -5 16 -9 19 -15 10
-15 -10 -1 -9 -4 5 -10 14 -6 15 -9 5 -10 -8 0 -1 -7 15 -15 28 -14 30 -19 27
-55 -3 -29 -9 -40 -21 -40 -14 0 -14 2 -1 10 8 5 11 10 5 11 -5 1 -14 2 -20 4
-5 1 -17 3 -27 3 -9 1 -21 16 -27 32 -11 33 -17 35 -55 20 -24 -9 -26 -7 -26
16 0 14 11 36 27 50 15 14 20 22 10 18 -13 -5 -16 -2 -11 11 9 23 30 1 41 -43z
m-137 -4 c0 -21 -3 -29 -10 -22 -5 5 -7 19 -4 32 9 31 14 27 14 -10z m410 -8
c0 -5 -4 -10 -10 -10 -5 0 -10 5 -10 10 0 6 5 10 10 10 6 0 10 -4 10 -10z
m-170 -15 c11 -13 10 -14 -4 -9 -9 3 -16 10 -16 15 0 13 6 11 20 -6z m-190
-55 c0 -5 -2 -10 -4 -10 -3 0 -8 5 -11 10 -3 6 -1 10 4 10 6 0 11 -4 11 -10z
m88 -13 c17 6 15 -5 -4 -24 -14 -14 -16 -14 -29 3 -8 11 -15 25 -15 33 0 12 3
11 18 -1 9 -9 23 -13 30 -11z m962 -92 c11 -13 10 -14 -4 -9 -9 3 -16 10 -16
15 0 13 6 11 20 -6z m-1200 -5 c0 -5 -2 -10 -4 -10 -3 0 -8 5 -11 10 -3 6 -1
10 4 10 6 0 11 -4 11 -10z m1240 -4 c0 -3 -4 -8 -10 -11 -5 -3 -10 -1 -10 4 0
6 5 11 10 11 6 0 10 -2 10 -4z m-190 -76 c0 -5 -4 -10 -10 -10 -5 0 -10 5 -10
10 0 6 5 10 10 10 6 0 10 -4 10 -10z m1610 -80 c0 -5 -5 -10 -11 -10 -5 0 -7
5 -4 10 3 6 8 10 11 10 2 0 4 -4 4 -10z m-1638 -62 c-8 -8 -9 -4 -5 13 4 13 8
18 11 10 2 -7 -1 -18 -6 -23z m1585 -10 c-3 -7 -5 -2 -5 12 0 14 2 19 5 13 2
-7 2 -19 0 -25z m-857 12 c0 -5 -5 -10 -11 -10 -5 0 -7 5 -4 10 3 6 8 10 11
10 2 0 4 -4 4 -10z m940 -88 c0 -15 -2 -15 -10 -2 -9 13 -12 12 -25 -4 -15
-20 -15 -20 -15 0 0 14 7 20 25 22 18 1 25 -3 25 -16z m-2446 0 c2 -4 1 -14
-3 -21 -6 -9 -10 -7 -14 8 -5 20 7 29 17 13z m2386 -6 c0 -3 -4 -8 -10 -11 -5
-3 -10 -1 -10 4 0 6 5 11 10 11 6 0 10 -2 10 -4z m27 -58 c-3 -8 -6 -5 -6 6
-1 11 2 17 5 13 3 -3 4 -12 1 -19z m-2237 -93 c0 -8 -4 -15 -10 -15 -5 0 -10
7 -10 15 0 8 5 15 10 15 6 0 10 -7 10 -15z m-2510 1 c0 -3 -4 -8 -10 -11 -5
-3 -10 -1 -10 4 0 6 5 11 10 11 6 0 10 -2 10 -4z m3171 -33 c16 -3 31 -14 35
-26 5 -15 8 -17 14 -6 5 7 6 17 4 21 -3 4 -1 8 5 8 6 0 9 -14 7 -30 -4 -32 11
-51 24 -30 6 9 9 10 15 0 4 -7 2 -16 -5 -20 -6 -4 -11 -11 -11 -16 1 -5 -10
-10 -25 -12 -22 -3 -25 -8 -21 -28 2 -13 -2 -29 -9 -35 -8 -6 -14 -19 -14 -29
0 -13 -10 -19 -35 -22 -29 -3 -38 0 -52 21 -22 33 -26 98 -7 105 8 3 15 16 15
28 1 19 2 20 6 4 4 -14 7 -16 13 -6 5 7 4 24 -1 37 -5 14 -6 36 -2 51 5 20 8
23 11 9 2 -10 16 -20 33 -24z m842 13 c9 -7 17 -22 17 -33 0 -10 5 -24 12 -31
9 -9 9 -15 1 -23 -19 -19 -73 48 -73 92 0 13 22 11 43 -5z m-4023 -36 c0 -11
-4 -20 -10 -20 -5 0 -10 9 -10 20 0 11 5 20 10 20 6 0 10 -9 10 -20z m-43 -12
c-3 -8 -6 -5 -6 6 -1 11 2 17 5 13 3 -3 4 -12 1 -19z m-27 -18 c0 -5 -2 -10
-4 -10 -3 0 -8 5 -11 10 -3 6 -1 10 4 10 6 0 11 -4 11 -10z m-60 -10 c0 -5 -4
-10 -10 -10 -5 0 -10 5 -10 10 0 6 5 10 10 10 6 0 10 -4 10 -10z m2728 -13 c5
-23 -10 -21 -26 4 -12 18 -11 20 5 17 10 -2 19 -11 21 -21z m-2524 -2 c3 -9 0
-15 -9 -15 -8 0 -15 4 -15 9 0 5 -10 7 -22 3 -12 -3 -19 -1 -15 4 9 16 55 15
61 -1z m4016 0 c0 -9 7 -18 15 -21 8 -4 15 -14 15 -24 0 -22 -22 -39 -28 -22
-2 7 -10 12 -18 12 -16 0 -19 26 -4 35 5 3 7 12 3 20 -3 8 0 15 6 15 6 0 11
-7 11 -15z m-4220 -15 c0 -5 -5 -10 -11 -10 -5 0 -7 5 -4 10 3 6 8 10 11 10 2
0 4 -4 4 -10z m185 -19 c3 -5 1 -12 -5 -16 -5 -3 -10 0 -10 7 0 9 -3 9 -10 -2
-8 -13 -10 -12 -10 3 0 18 25 24 35 8z m4698 -6 c4 -8 2 -17 -3 -20 -6 -4 -10
-4 -10 -1 0 2 -3 11 -6 20 -3 9 -2 16 4 16 5 0 12 -7 15 -15z m-4803 -69 c-7
-7 -10 4 -9 30 1 39 1 39 10 9 5 -18 5 -33 -1 -39z m4805 12 c-11 -36 -25 -45
-25 -17 0 27 7 39 22 39 5 0 6 -10 3 -22z m-4675 -3 c11 -13 6 -15 -41 -11
-76 6 -80 8 -29 16 25 4 48 8 51 8 4 1 12 -5 19 -13z m2571 -8 c-1 -12 -15 -9
-19 4 -3 6 1 10 8 8 6 -3 11 -8 11 -12z m-2731 -27 c0 -5 -2 -10 -4 -10 -3 0
-8 5 -11 10 -3 6 -1 10 4 10 6 0 11 -4 11 -10z m40 0 c0 -5 -2 -10 -4 -10 -3
0 -8 5 -11 10 -3 6 -1 10 4 10 6 0 11 -4 11 -10z m42 -15 c3 -14 1 -25 -3 -25
-5 0 -9 11 -9 25 0 14 2 25 4 25 2 0 6 -11 8 -25z m25 -12 c-3 -10 -5 -4 -5
12 0 17 2 24 5 18 2 -7 2 -21 0 -30z m-261 -11 c6 -4 10 -15 9 -24 -2 -9 3
-19 11 -22 11 -4 13 -15 8 -42 -6 -35 -6 -36 15 -25 11 7 21 20 21 31 0 10 5
22 10 25 6 3 10 -1 10 -9 0 -19 1 -19 37 -6 l28 10 -29 -25 c-15 -15 -25 -29
-22 -33 4 -3 11 0 15 7 6 9 11 10 15 3 4 -6 14 -8 23 -5 13 5 15 1 11 -20 -3
-18 -1 -24 6 -19 6 3 19 8 28 9 17 3 17 2 0 -15 -9 -10 -19 -17 -21 -15 -10 7
-31 -21 -31 -43 0 -12 -4 -25 -9 -29 -15 -9 -24 14 -12 29 6 7 9 21 5 30 -3 9
-1 23 6 31 16 20 5 32 -14 16 -8 -6 -12 -20 -9 -30 4 -15 -2 -21 -26 -26 -18
-4 -31 -13 -31 -21 0 -31 -18 -3 -24 37 -6 39 -8 40 -21 23 -13 -19 -14 -19
-28 1 -17 22 -13 35 9 35 21 0 17 17 -8 35 -23 16 -23 16 -3 31 20 15 19 15
-5 12 -23 -3 -25 -7 -25 -53 0 -49 -2 -51 -35 -46 -16 2 -12 20 17 78 15 29
33 53 41 53 7 0 10 5 7 10 -7 12 5 13 21 2z m64 -2 c0 -5 -5 -10 -11 -10 -5 0
-7 5 -4 10 3 6 8 10 11 10 2 0 4 -4 4 -10z m50 6 c0 -11 -19 -15 -25 -6 -3 5
1 10 9 10 9 0 16 -2 16 -4z m60 -33 c0 -13 -6 -23 -14 -23 -8 0 -13 8 -12 18
0 9 -5 16 -12 14 -8 -1 -11 2 -8 7 12 20 46 8 46 -16z m230 12 c-7 -8 -16 -12
-21 -9 -13 8 -1 24 18 24 13 0 13 -3 3 -15z m4555 -2 c-4 -10 -7 -28 -6 -40 0
-13 -4 -23 -9 -23 -6 0 -8 -11 -4 -25 4 -15 2 -25 -4 -25 -6 0 -12 10 -14 23
-4 26 23 107 35 107 5 0 6 -8 2 -17z m-4595 -14 c0 -6 -4 -7 -10 -4 -5 3 -10
11 -10 16 0 6 5 7 10 4 6 -3 10 -11 10 -16z m2510 11 c0 -5 -4 -10 -10 -10 -5
0 -10 5 -10 10 0 6 5 10 10 10 6 0 10 -4 10 -10z m-2768 -22 c-7 -7 -12 -8
-12 -2 0 14 12 26 19 19 2 -3 -1 -11 -7 -17z m175 -5 c3 -7 -4 -9 -16 -6 -12
3 -18 9 -15 15 7 11 26 6 31 -9z m2593 -18 c0 -8 -4 -15 -10 -15 -5 0 -10 7
-10 15 0 8 5 15 10 15 6 0 10 -7 10 -15z m-2611 -21 c-8 -10 -9 -18 -2 -22 5
-4 15 -18 22 -32 11 -23 11 -24 -3 -6 -13 16 -18 17 -31 6 -13 -10 -15 -9 -15
6 0 36 12 64 27 64 13 0 13 -3 2 -16z m-69 -21 c0 -20 -3 -24 -11 -16 -7 7 -9
19 -6 27 10 24 17 19 17 -11z m229 -9 c-12 -15 -11 -16 11 -10 19 6 21 5 10
-3 -10 -7 -11 -11 -2 -11 6 0 12 -4 12 -9 0 -6 -12 -3 -27 5 -16 7 -36 14 -45
14 -10 0 -18 5 -18 11 0 6 9 8 20 4 11 -4 20 -2 20 4 0 6 7 11 16 11 14 0 15
-2 3 -16z m4471 -54 c4 0 7 11 6 25 -2 13 1 22 5 19 5 -3 9 -12 9 -20 0 -10 5
-12 13 -8 9 6 9 4 1 -7 -7 -8 -12 -32 -11 -54 0 -62 -10 -85 -36 -81 -12 3
-31 5 -41 5 -16 1 -17 4 -8 13 7 7 12 20 12 30 0 11 7 18 20 18 11 0 20 2 20
4 0 2 3 11 6 20 3 9 1 16 -5 16 -6 0 -11 -7 -11 -15 0 -8 -6 -15 -14 -15 -9 0
-12 10 -10 30 2 17 -1 30 -6 30 -6 0 -10 -5 -10 -12 0 -6 -3 -8 -7 -4 -4 4 6
18 22 31 l30 23 3 -24 c2 -13 7 -24 12 -24z m-4566 16 c-3 -9 -10 -13 -15 -10
-5 3 -3 11 4 19 15 16 19 13 11 -9z m106 -17 c0 -6 -4 -7 -10 -4 -5 3 -10 11
-10 16 0 6 5 7 10 4 6 -3 10 -11 10 -16z m-510 -19 c0 -35 -19 -40 -39 -9 -11
18 -11 23 1 30 25 16 38 9 38 -21z m36 -17 c-10 -10 -19 5 -10 18 6 11 8 11
12 0 2 -7 1 -15 -2 -18z m144 -30 c0 -17 -15 -16 -30 1 -9 12 -8 15 9 13 12
-1 21 -7 21 -14z m-50 -14 c0 -5 -5 -9 -11 -9 -5 0 -7 -5 -4 -10 4 -6 10 -8
15 -5 21 13 35 -41 18 -72 -13 -26 -28 -21 -28 8 0 11 -5 17 -10 14 -6 -4 -8
-11 -5 -16 4 -5 1 -9 -4 -9 -16 0 -81 66 -81 82 0 8 3 9 8 3 14 -19 32 -15 33
8 1 15 5 10 14 -18 10 -30 14 -35 15 -17 2 12 4 27 5 32 1 6 3 14 4 20 1 12
31 1 31 -11z m68 -15 c29 10 45 -16 29 -46 -7 -13 -18 -23 -25 -20 -6 2 -12
-1 -12 -8 0 -6 -4 -9 -9 -6 -5 3 -7 15 -4 26 3 11 9 17 14 14 5 -3 6 2 3 11
-4 8 -17 18 -30 21 -13 3 -21 10 -18 16 3 5 11 4 19 -2 8 -7 23 -9 33 -6z
m338 -19 c-4 -13 -10 -14 -26 -5 -25 13 -26 27 -2 33 23 5 36 -8 28 -28z
m-166 4 c0 -5 -4 -9 -10 -9 -5 0 -10 7 -10 16 0 8 5 12 10 9 6 -3 10 -10 10
-16z m30 -6 c-1 -24 -2 -26 -11 -10 -5 9 -7 22 -4 27 10 17 15 11 15 -17z
m-103 3 c4 -7 15 -16 23 -19 11 -4 9 -6 -5 -6 -21 -1 -45 16 -45 31 0 13 18 9
27 -6z m4633 -30 c0 -9 -30 -14 -35 -6 -4 6 3 10 14 10 12 0 21 -2 21 -4z
m-4667 -21 c4 -8 2 -17 -4 -20 -5 -4 -6 -12 -2 -18 12 -19 13 -46 3 -52 -6 -4
-8 -11 -5 -16 4 -5 1 -9 -6 -9 -7 0 -10 11 -7 30 3 17 1 30 -3 30 -7 0 -7 20
0 63 2 13 19 8 24 -8z m54 -7 c-3 -8 -6 -5 -6 6 -1 11 2 17 5 13 3 -3 4 -12 1
-19z m50 -4 c-9 -9 -28 6 -21 18 4 6 10 6 17 -1 6 -6 8 -13 4 -17z m225 -26
c-6 -6 -7 0 -4 19 5 21 7 23 10 9 2 -10 0 -22 -6 -28z m-772 22 c0 -5 7 -10
15 -10 9 0 15 -10 15 -26 0 -20 -4 -25 -21 -22 -16 2 -23 11 -25 36 -2 17 1
32 6 32 6 0 10 -4 10 -10z m630 6 c0 -2 -7 -9 -15 -16 -12 -10 -15 -10 -15 4
0 9 7 16 15 16 8 0 15 -2 15 -4z m4490 -6 c0 -5 -7 -10 -15 -10 -8 0 -15 5
-15 10 0 6 7 10 15 10 8 0 15 -4 15 -10z m-5066 -33 c4 -19 3 -26 -4 -22 -5 3
-10 18 -10 32 0 32 5 28 14 -10z m326 -23 c0 -31 -2 -35 -15 -24 -17 14 -20
40 -4 40 5 0 7 5 4 10 -3 6 -1 10 4 10 6 0 11 -16 11 -36z m190 26 c0 -5 -5
-10 -11 -10 -5 0 -7 5 -4 10 3 6 8 10 11 10 2 0 4 -4 4 -10z m-308 -12 c-26
-26 -7 -45 25 -25 7 5 9 1 6 -13 -3 -10 -8 -19 -12 -18 -18 2 -32 -3 -27 -10
6 -10 -25 -9 -42 2 -15 9 -25 -13 -20 -51 2 -19 10 -29 23 -31 11 -2 25 -9 30
-14 7 -7 3 -9 -12 -5 -13 3 -23 1 -23 -3 0 -6 -52 -30 -65 -30 -1 0 -2 7 -2
15 0 9 9 15 23 15 21 0 21 2 12 40 -9 36 -28 56 -28 30 0 -5 -7 -10 -15 -10
-8 0 -15 7 -15 15 0 8 -4 15 -10 15 -5 0 -10 7 -10 15 0 8 4 15 9 15 5 0 11
10 15 22 4 18 8 20 17 11 10 -10 9 -17 -4 -31 -23 -25 -22 -27 13 -29 22 -2
28 1 23 12 -4 11 2 15 22 15 24 0 26 3 21 26 -6 22 -4 25 13 19 11 -3 22 -1
26 5 3 5 9 10 13 10 3 0 1 -5 -6 -12z m573 2 c3 -6 -1 -7 -9 -4 -18 7 -21 14
-7 14 6 0 13 -4 16 -10z m2195 -10 c0 -5 -4 -10 -10 -10 -5 0 -10 5 -10 10 0
6 5 10 10 10 6 0 10 -4 10 -10z m-2491 -26 c-14 -18 -24 -11 -15 11 3 9 11 13
16 10 8 -5 7 -11 -1 -21z m-194 5 c10 -15 -15 -69 -31 -69 -8 0 -14 4 -14 10
0 5 -7 7 -15 4 -8 -4 -15 -1 -15 6 0 8 9 10 26 6 21 -6 25 -4 21 8 -12 31 13
61 28 35z m152 -21 c-3 -7 -5 -2 -5 12 0 14 2 19 5 13 2 -7 2 -19 0 -25z m133
23 c0 -5 -7 -11 -15 -15 -9 -3 -15 0 -15 9 0 8 7 15 15 15 8 0 15 -4 15 -9z
m-220 -20 c0 -19 -18 -31 -46 -31 -8 0 -14 4 -14 9 0 5 9 7 20 4 15 -4 20 0
20 16 0 11 5 21 10 21 6 0 10 -9 10 -19z m430 -11 c0 -5 -4 -10 -10 -10 -5 0
-10 5 -10 10 0 6 5 10 10 10 6 0 10 -4 10 -10z m2120 -10 c0 -5 -4 -10 -9 -10
-6 0 -13 5 -16 10 -3 6 1 10 9 10 9 0 16 -4 16 -10z m-2390 -15 c0 -8 -2 -15
-4 -15 -2 0 -6 7 -10 15 -3 8 -1 15 4 15 6 0 10 -7 10 -15z m-55 -5 c4 -6 -8
-10 -29 -10 -20 0 -36 5 -36 10 0 6 13 10 29 10 17 0 33 -4 36 -10z m-240 -30
c3 -5 -3 -10 -14 -10 -12 0 -21 5 -21 10 0 6 6 10 14 10 8 0 18 -4 21 -10z
m59 -6 c17 -6 22 -24 8 -24 -5 0 -17 7 -28 15 -19 15 -8 20 20 9z m276 -9 c0
-11 -5 -12 -25 -5 -15 6 -26 6 -30 -1 -7 -11 -25 -3 -25 12 0 5 18 9 40 9 29
0 40 -4 40 -15z m230 11 c0 -3 -4 -8 -10 -11 -5 -3 -10 -1 -10 4 0 6 5 11 10
11 6 0 10 -2 10 -4z m4294 -46 c-6 -6 -10 2 -11 23 -2 30 -1 31 9 9 7 -14 8
-26 2 -32z m-4347 13 c-3 -3 -11 -2 -17 2 -9 6 -9 10 1 16 14 8 27 -7 16 -18z
m83 -2 c0 -5 8 -12 18 -14 9 -3 3 -5 -15 -6 -33 -1 -53 13 -31 22 20 8 28 8
28 -2z m2063 -8 c-4 -10 -9 -11 -19 -2 -19 15 -18 18 5 16 11 -1 17 -6 14 -14z
m-2867 -30 c-11 -11 -19 6 -11 24 8 17 8 17 12 0 3 -10 2 -21 -1 -24z m434 27
c0 -5 -5 -10 -11 -10 -5 0 -7 5 -4 10 3 6 8 10 11 10 2 0 4 -4 4 -10z m194
-16 c3 -8 2 -12 -4 -9 -6 3 -10 10 -10 16 0 14 7 11 14 -7z m136 1 c10 -12 10
-15 -4 -15 -9 0 -16 7 -16 15 0 8 2 15 4 15 2 0 9 -7 16 -15z m-410 -17 c0 -5
-4 -7 -9 -4 -5 4 -11 1 -13 -6 -3 -9 -9 -8 -21 4 -23 23 -22 25 13 20 17 -2
30 -9 30 -14z m-180 8 c0 -2 -7 -7 -16 -10 -8 -3 -12 -2 -9 4 6 10 25 14 25 6z
m2674 -4 c-7 -4 -14 -18 -15 -31 -5 -30 -39 -38 -39 -10 0 10 7 19 15 19 8 0
15 4 15 10 0 5 -8 7 -17 4 -15 -5 -16 -4 -3 5 8 6 24 11 35 11 12 0 16 -3 9
-8z m-2914 -12 c0 -5 -5 -10 -11 -10 -5 0 -7 5 -4 10 3 6 8 10 11 10 2 0 4 -4
4 -10z m605 -1 c12 -19 -5 -23 -22 -6 -16 16 -16 17 -1 17 9 0 20 -5 23 -11z
m-85 -9 c0 -5 -7 -10 -16 -10 -9 0 -12 -5 -8 -12 5 -7 3 -8 -6 -3 -7 4 -15 3
-19 -2 -3 -6 -15 -7 -26 -2 -19 7 -19 8 3 8 12 1 22 5 22 10 0 8 16 16 43 20
4 0 7 -3 7 -9z m-326 -16 c5 -14 4 -15 -9 -4 -17 14 -19 20 -6 20 5 0 12 -7
15 -16z m51 6 c-3 -5 -14 -10 -23 -10 -15 0 -15 2 -2 10 20 13 33 13 25 0z
m305 -31 c0 -20 -24 -26 -35 -9 -8 13 14 42 26 34 5 -3 9 -14 9 -25z m-460 6
c0 -8 -4 -15 -9 -15 -5 0 -11 7 -15 15 -3 9 0 15 9 15 8 0 15 -7 15 -15z m750
-5 c0 -5 -5 -10 -11 -10 -5 0 -7 5 -4 10 3 6 8 10 11 10 2 0 4 -4 4 -10z
m-687 -7 c-7 -2 -19 -2 -25 0 -7 3 -2 5 12 5 14 0 19 -2 13 -5z m343 -20 c-10
-10 -19 5 -10 18 6 11 8 11 12 0 2 -7 1 -15 -2 -18z m-452 2 c-4 -8 -8 -15
-10 -15 -2 0 -4 7 -4 15 0 8 4 15 10 15 5 0 7 -7 4 -15z m917 -2 c1 -10 1 -21
0 -25 -2 -12 14 -9 27 4 9 9 12 9 12 0 0 -7 -1 -12 -3 -12 -1 0 -17 -4 -35
-10 -27 -7 -32 -6 -23 3 5 7 8 23 4 35 -3 13 -1 22 6 22 6 0 12 -8 12 -17z
m-719 -15 c-7 -7 -12 -8 -12 -2 0 14 12 26 19 19 2 -3 -1 -11 -7 -17z m-43
-26 c-17 -2 -29 -9 -29 -18 0 -8 -8 -14 -18 -14 -26 0 -34 -11 -21 -26 12 -15
4 -34 -15 -34 -8 0 -13 10 -12 22 0 13 -4 23 -11 23 -6 0 -15 4 -20 9 -5 5 1
7 15 3 12 -3 22 -1 22 4 0 5 11 14 25 19 16 6 23 14 19 25 -3 8 -1 15 5 15 6
0 11 -4 11 -10 0 -5 7 -10 15 -10 8 0 15 8 15 17 0 15 2 14 14 -3 14 -18 12
-19 -15 -22z m225 23 c3 -8 1 -15 -4 -15 -6 0 -10 7 -10 15 0 8 2 15 4 15 2 0
6 -7 10 -15z m-294 -15 c0 -5 -4 -10 -10 -10 -5 0 -10 5 -10 10 0 6 5 10 10
10 6 0 10 -4 10 -10z m737 -27 c-3 -3 -11 -2 -17 2 -8 5 -7 11 2 22 12 15 13
14 16 -1 2 -10 1 -20 -1 -23z m2038 27 c-3 -5 -12 -10 -18 -10 -7 0 -6 4 3 10
19 12 23 12 15 0z m-2858 -27 c-3 -39 -27 -42 -27 -4 0 20 5 31 14 31 10 0 14
-9 13 -27z m283 1 c0 -8 -4 -12 -10 -9 -5 3 -10 13 -10 21 0 8 5 12 10 9 6 -3
10 -13 10 -21z m40 5 c0 -5 -4 -9 -8 -9 -5 0 -9 7 -9 15 0 8 4 12 9 9 4 -3 8
-9 8 -15z m270 -3 c0 -3 -4 -8 -10 -11 -5 -3 -10 -1 -10 4 0 6 5 11 10 11 6 0
10 -2 10 -4z m62 -13 c-10 -4 -7 -9 8 -17 26 -13 28 -30 4 -34 -10 -3 -14 0
-9 8 4 7 -1 13 -13 17 -24 6 -18 33 7 32 11 0 12 -2 3 -6z m305 -8 c1 -5 -11
-10 -27 -11 -29 -1 -37 6 -23 20 10 10 46 3 50 -9z m-497 1 c0 -2 -7 -7 -16
-10 -8 -3 -12 -2 -9 4 6 10 25 14 25 6z m315 -36 c-5 -16 -10 -19 -18 -11 -17
17 -27 13 -27 -9 0 -21 -20 -35 -39 -28 -7 2 -7 8 -1 18 9 13 11 13 20 0 8
-12 10 -9 10 12 0 28 21 50 28 30 6 -18 22 -14 22 5 0 9 3 14 6 10 3 -3 3 -15
-1 -27z m102 3 c-15 -16 -17 -16 -17 -1 0 9 6 18 13 21 20 7 22 -2 4 -20z
m-661 -20 c-3 -3 -12 2 -21 10 -13 14 -13 16 3 19 16 3 30 -18 18 -29z m631
15 c-3 -8 -6 -5 -6 6 -1 11 2 17 5 13 3 -3 4 -12 1 -19z m-457 8 c0 -2 -7 -7
-16 -10 -8 -3 -12 -2 -9 4 6 10 25 14 25 6z m575 -16 c17 -18 17 -20 2 -14
-12 4 -17 1 -18 -12 -1 -17 -2 -17 -6 -1 -2 9 -8 17 -13 17 -5 0 -7 7 -4 15 8
20 17 19 39 -5z m-905 -36 c0 -2 -9 -4 -21 -4 -11 0 -17 5 -14 10 3 6 1 10 -4
10 -6 0 -11 5 -11 10 0 6 11 3 25 -6 14 -9 25 -18 25 -20z m2485 26 c3 -5 1
-10 -4 -10 -6 0 -11 5 -11 10 0 6 2 10 4 10 3 0 8 -4 11 -10z m-2104 -10 c5 0
9 -7 9 -15 0 -18 -21 -20 -38 -3 -17 17 -15 31 4 24 9 -3 20 -6 25 -6z m-331
-11 c0 -4 -7 -9 -15 -13 -9 -3 -15 0 -15 8 0 7 7 13 15 13 8 0 15 -4 15 -8z
m790 -9 c0 -5 -11 -10 -25 -10 -14 0 -25 5 -25 10 0 6 11 10 25 10 14 0 25 -4
25 -10z m-665 -20 c3 -5 1 -10 -4 -10 -6 0 -11 5 -11 10 0 6 2 10 4 10 3 0 8
-4 11 -10z m488 -20 c-3 -12 -8 -19 -11 -16 -5 6 5 36 12 36 2 0 2 -9 -1 -20z
m-658 -4 c12 -12 11 -15 -5 -19 -15 -4 -20 0 -20 14 0 23 7 24 25 5z m55 -1
c0 -8 -4 -15 -10 -15 -5 0 -10 7 -10 15 0 8 5 15 10 15 6 0 10 -7 10 -15z
m579 -27 c1 -5 -3 -8 -9 -8 -5 0 -10 7 -10 16 0 8 -4 12 -10 9 -5 -3 -10 -2
-10 4 0 17 25 19 32 2 4 -9 7 -19 7 -23z m95 19 c-1 -13 45 -33 69 -28 4 0 7
-5 7 -12 0 -7 -16 -19 -35 -27 -19 -8 -35 -19 -35 -26 0 -7 -3 -21 -6 -31 -5
-16 -4 -16 7 2 12 19 12 19 20 0 7 -17 8 -18 8 -2 1 9 8 17 16 17 11 0 13 -8
8 -32 -7 -39 -12 -46 -21 -33 -4 6 -13 10 -19 11 -30 2 -33 5 -33 28 0 15 -7
26 -20 29 -30 8 -26 35 5 32 22 -3 24 0 19 23 -11 50 -13 54 -34 47 -11 -3
-20 -2 -20 4 0 10 36 20 55 16 6 -1 9 -9 9 -18z m208 -19 c-9 -9 -12 -7 -12
12 0 19 3 21 12 12 9 -9 9 -15 0 -24z m45 14 c0 -10 -7 -19 -14 -19 -16 0 -16
4 0 22 16 18 16 18 14 -3z m-485 -56 c-2 -5 -9 -1 -14 8 -5 9 -6 21 -2 28 9
14 25 -22 16 -36z m108 14 c0 -5 -5 -10 -11 -10 -5 0 -7 5 -4 10 3 6 8 10 11
10 2 0 4 -4 4 -10z m-650 -10 c0 -5 -2 -10 -4 -10 -3 0 -8 5 -11 10 -3 6 -1
10 4 10 6 0 11 -4 11 -10z m-31 -32 c0 -30 -1 -31 -9 -10 -5 12 -14 22 -20 22
-5 0 -10 5 -10 10 0 6 9 10 20 10 16 0 20 -6 19 -32z m727 13 c-11 -12 -14
-21 -7 -26 17 -10 13 -25 -6 -25 -15 0 -16 -2 -3 -9 8 -6 19 -7 25 -3 23 14
45 12 45 -6 0 -13 -2 -14 -9 -3 -7 11 -11 10 -20 -5 -6 -11 -11 -14 -11 -8 0
5 -10 10 -22 11 -13 0 -29 2 -37 4 -7 2 -16 -2 -19 -10 -3 -9 0 -11 8 -6 10 6
12 4 7 -8 -3 -9 -2 -19 3 -22 18 -11 10 -23 -10 -18 -14 4 -20 14 -20 32 0 14
-3 36 -6 47 -5 19 -2 21 19 17 33 -7 43 13 15 29 l-23 12 30 7 c55 12 60 11
41 -10z m331 -1 c1 -13 -4 -20 -15 -19 -10 0 -12 3 -5 5 7 3 9 12 6 20 -3 8
-1 14 4 14 5 0 9 -9 10 -20z m-987 -10 c0 -5 -4 -10 -9 -10 -6 0 -13 5 -16 10
-3 6 1 10 9 10 9 0 16 -4 16 -10z m400 0 c0 -5 -4 -10 -10 -10 -5 0 -10 5 -10
10 0 6 5 10 10 10 6 0 10 -4 10 -10z m60 0 c0 -5 -4 -10 -10 -10 -5 0 -10 5
-10 10 0 6 5 10 10 10 6 0 10 -4 10 -10z m435 0 c3 -5 -1 -10 -9 -10 -9 0 -16
5 -16 10 0 6 4 10 9 10 6 0 13 -4 16 -10z m-733 -42 c-7 -7 -12 -8 -12 -2 0
14 12 26 19 19 2 -3 -1 -11 -7 -17z m688 2 c6 9 10 10 10 3 0 -7 -9 -17 -19
-22 -15 -8 -20 -7 -25 5 -11 29 -6 39 10 19 13 -17 16 -18 24 -5z m-854 -50
c8 0 14 -5 14 -11 0 -6 -10 -9 -22 -7 -15 2 -22 9 -22 21 1 9 -2 17 -8 17 -5
0 -3 6 4 14 11 12 14 10 16 -10 2 -13 10 -24 18 -24z m33 21 c0 -26 0 -26 -9
-3 -5 12 -12 22 -15 22 -4 0 -4 -4 0 -9 3 -5 1 -12 -5 -16 -10 -6 -15 17 -5
27 15 15 35 2 34 -21z m861 15 c0 -3 -4 -8 -10 -11 -5 -3 -10 -1 -10 4 0 6 5
11 10 11 6 0 10 -2 10 -4z m-991 -42 c-9 -11 -15 -12 -23 -4 -8 8 -7 13 4 20
20 12 33 1 19 -16z m43 -16 c-7 -7 -12 -8 -12 -2 0 14 12 26 19 19 2 -3 -1
-11 -7 -17z m748 2 c0 -5 -7 -10 -16 -10 -8 0 -12 5 -9 10 3 6 10 10 16 10 5
0 9 -4 9 -10z m-780 -28 c0 -12 -3 -12 -15 -2 -8 7 -15 13 -15 15 0 1 7 2 15
2 8 0 15 -7 15 -15z m110 -9 c0 -22 -2 -25 -10 -13 -9 13 -11 13 -20 0 -5 -8
-10 -24 -10 -35 -1 -19 -1 -19 -11 -1 -13 22 5 63 30 69 9 3 17 5 19 6 1 0 2
-11 2 -26z m35 18 c3 -5 1 -12 -5 -16 -5 -3 -10 1 -10 9 0 18 6 21 15 7z m475
0 c0 -5 -7 -12 -16 -15 -14 -5 -15 -4 -4 9 14 17 20 19 20 6z m-450 -50 c0
-12 -20 -25 -27 -18 -7 7 6 27 18 27 5 0 9 -4 9 -9z m4085 -814 c-1 -12 -3
-29 -4 -37 -1 -21 -38 -23 -45 -3 -8 20 34 89 44 73 4 -6 6 -21 5 -33z m35
-122 c7 -9 10 -18 7 -21 -10 -11 -37 5 -37 21 0 19 14 19 30 0z"/>
<path d="M5140 4821 c0 -5 7 -11 15 -15 8 -3 15 -1 15 3 0 5 -7 11 -15 15 -8
3 -15 1 -15 -3z"/>
<path d="M5222 4649 c2 -7 10 -15 17 -17 8 -3 12 1 9 9 -2 7 -10 15 -17 17 -8
3 -12 -1 -9 -9z"/>
<path d="M5224 4525 c26 -20 42 -19 22 0 -8 8 -21 15 -28 15 -8 -1 -6 -6 6
-15z"/>
<path d="M5242 4441 c4 -13 18 -16 19 -4 0 4 -5 9 -11 12 -7 2 -11 -2 -8 -8z"/>
<path d="M5122 4130 c0 -14 2 -19 5 -12 2 6 2 18 0 25 -3 6 -5 1 -5 -13z"/>
<path d="M5240 3911 c0 -5 5 -13 10 -16 6 -3 10 -2 10 4 0 5 -4 13 -10 16 -5
3 -10 2 -10 -4z"/>
<path d="M3910 3169 c0 -11 4 -18 10 -14 5 3 7 12 3 20 -7 21 -13 19 -13 -6z"/>
<path d="M3837 3067 c-2 -7 -2 -18 0 -24 4 -10 8 -9 19 1 18 18 18 22 0 29 -8
3 -16 0 -19 -6z"/>
<path d="M4041 3064 c0 -11 3 -14 6 -6 3 7 2 16 -1 19 -3 4 -6 -2 -5 -13z"/>
<path d="M3783 3015 c-8 -8 -9 -16 -3 -20 5 -3 14 4 20 15 12 23 1 26 -17 5z"/>
<path d="M4003 2982 c0 -16 14 -32 29 -32 3 0 4 9 1 19 -6 25 -30 34 -30 13z"/>
<path d="M3882 2954 c0 -19 5 -34 10 -34 6 0 8 7 4 15 -3 9 0 15 9 15 8 0 15
-7 15 -15 0 -20 9 -19 45 5 l30 20 -32 -4 c-18 -2 -33 -1 -33 3 0 3 -11 11
-24 17 -23 11 -24 9 -24 -22z"/>
<path d="M3792 2968 c6 -18 28 -21 28 -4 0 9 -7 16 -16 16 -9 0 -14 -5 -12
-12z"/>
<path d="M4018 2912 c-4 -12 -2 -24 2 -27 13 -8 18 8 10 29 -6 19 -7 19 -12
-2z"/>
<path d="M3960 2905 c0 -9 6 -12 15 -9 8 4 15 10 15 15 0 5 -7 9 -15 9 -8 0
-15 -7 -15 -15z"/>
<path d="M4040 2733 c0 -13 5 -23 10 -23 13 0 13 11 0 30 -8 12 -10 11 -10 -7z"/>
<path d="M3670 2612 c0 -28 17 -37 35 -18 17 17 20 30 5 21 -6 -4 -17 -1 -25
5 -12 10 -15 9 -15 -8z"/>
<path d="M3635 2520 c-3 -5 -2 -10 4 -10 5 0 13 5 16 10 3 6 2 10 -4 10 -5 0
-13 -4 -16 -10z"/>
<path d="M35 1990 c-3 -5 -1 -10 4 -10 6 0 11 5 11 10 0 6 -2 10 -4 10 -3 0
-8 -4 -11 -10z"/>
<path d="M887 1453 c-4 -3 -7 -11 -7 -17 0 -6 5 -5 12 2 6 6 9 14 7 17 -3 3
-9 2 -12 -2z"/>
<path d="M2766 5043 c-6 -14 -5 -15 5 -6 7 7 10 15 7 18 -3 3 -9 -2 -12 -12z"/>
<path d="M2735 5020 c-3 -5 -1 -10 4 -10 6 0 11 5 11 10 0 6 -2 10 -4 10 -3 0
-8 -4 -11 -10z"/>
<path d="M2765 5009 c-4 -6 -5 -12 -2 -15 2 -3 7 2 10 11 7 17 1 20 -8 4z"/>
<path d="M2590 5000 c0 -5 5 -10 10 -10 6 0 10 5 10 10 0 6 -4 10 -10 10 -5 0
-10 -4 -10 -10z"/>
<path d="M2587 4956 c-4 -10 -5 -21 -2 -24 9 -9 17 6 13 25 -3 17 -4 17 -11
-1z"/>
<path d="M2806 4921 c-4 -5 -2 -12 3 -15 5 -4 12 -2 15 3 4 5 2 12 -3 15 -5 4
-12 2 -15 -3z"/>
<path d="M2550 4895 c0 -8 4 -15 10 -15 5 0 7 7 4 15 -4 8 -8 15 -10 15 -2 0
-4 -7 -4 -15z"/>
<path d="M2640 4849 c0 -10 -5 -19 -12 -21 -8 -3 -6 -7 4 -11 12 -4 19 0 23
14 4 10 11 19 16 19 5 0 9 4 9 9 0 6 -9 9 -20 8 -12 -1 -20 -8 -20 -18z"/>
<path d="M2695 4849 c-4 -6 -4 -13 -1 -16 3 -4 6 -1 6 5 0 6 7 9 15 6 8 -4 15
-1 15 5 0 14 -27 14 -35 0z"/>
<path d="M2580 4836 c0 -9 5 -16 10 -16 6 0 10 4 10 9 0 6 -4 13 -10 16 -5 3
-10 -1 -10 -9z"/>
<path d="M2541 4816 l-24 -13 22 -13 c27 -14 34 -9 29 18 -3 19 -5 19 -27 8z"/>
<path d="M2675 4806 c-22 -13 -45 -33 -45 -39 0 -2 10 -4 23 -4 15 0 27 9 35
25 14 31 13 33 -13 18z"/>
<path d="M2830 4810 c0 -5 5 -10 11 -10 5 0 7 5 4 10 -3 6 -8 10 -11 10 -2 0
-4 -4 -4 -10z"/>
<path d="M2605 4790 c3 -5 8 -10 11 -10 2 0 4 5 4 10 0 6 -5 10 -11 10 -5 0
-7 -4 -4 -10z"/>
<path d="M2580 4761 c0 -19 17 -38 25 -29 7 7 -7 48 -16 48 -5 0 -9 -9 -9 -19z"/>
<path d="M2717 4769 c-17 -10 -23 -29 -9 -29 5 0 16 6 27 13 22 17 7 29 -18
16z"/>
<path d="M2880 4757 c0 -10 -6 -14 -15 -11 -11 4 -15 0 -15 -16 0 -19 2 -20
15 -10 12 10 15 10 15 -3 0 -9 -8 -21 -17 -27 -13 -8 -14 -13 -5 -16 17 -8 15
-39 -3 -54 -8 -7 -15 -19 -15 -27 0 -20 27 -46 40 -38 15 9 12 35 -4 35 -9 0
-12 7 -9 19 4 16 9 18 36 10 18 -5 33 -9 34 -9 10 0 -14 33 -32 43 -19 10 -21
16 -13 45 9 32 22 39 47 23 9 -6 10 -11 2 -15 -6 -4 -11 -2 -11 4 0 6 -4 8
-10 5 -17 -10 -11 -25 9 -25 28 0 38 38 15 55 -11 7 -22 11 -27 8 -4 -2 -14 1
-22 7 -12 10 -15 9 -15 -3z"/>
<path d="M2516 4744 c-7 -18 0 -34 15 -34 5 0 9 11 9 25 0 28 -15 34 -24 9z"/>
<path d="M2560 4726 c0 -9 5 -16 10 -16 6 0 10 4 10 9 0 6 -4 13 -10 16 -5 3
-10 -1 -10 -9z"/>
<path d="M2516 4691 c-4 -7 -5 -15 -2 -18 9 -9 19 4 14 18 -4 11 -6 11 -12 0z"/>
<path d="M2660 4665 c0 -8 5 -15 11 -15 7 0 9 -9 5 -24 -5 -20 -3 -23 14 -19
11 3 20 10 20 15 0 5 -4 7 -9 4 -5 -3 -11 8 -15 24 -6 31 -26 42 -26 15z"/>
<path d="M2780 4661 c0 -25 6 -27 13 -6 4 8 2 17 -3 20 -6 4 -10 -3 -10 -14z"/>
<path d="M2534 4662 c-6 -4 -4 -13 8 -24 17 -17 18 -17 18 7 0 26 -7 30 -26
17z"/>
<path d="M2820 4661 c0 -5 7 -12 16 -15 14 -5 15 -4 4 9 -14 17 -20 19 -20 6z"/>
<path d="M2700 4650 c0 -5 5 -10 10 -10 6 0 10 5 10 10 0 6 -4 10 -10 10 -5 0
-10 -4 -10 -10z"/>
<path d="M2500 4612 c0 -5 7 -15 15 -22 8 -7 15 -8 15 -2 0 5 -7 15 -15 22 -8
7 -15 8 -15 2z"/>
<path d="M2805 4600 c-3 -5 -2 -10 4 -10 5 0 13 5 16 10 3 6 2 10 -4 10 -5 0
-13 -4 -16 -10z"/>
<path d="M2708 4583 c7 -3 16 -2 19 1 4 3 -2 6 -13 5 -11 0 -14 -3 -6 -6z"/>
<path d="M2766 4563 c5 -22 4 -26 -6 -16 -16 14 -40 6 -40 -14 0 -12 3 -13 15
-3 8 6 18 9 23 7 15 -10 31 9 25 31 -8 32 -25 27 -17 -5z"/>
<path d="M2911 4566 c-8 -10 -9 -16 -1 -21 5 -3 10 0 10 9 0 8 6 17 13 19 7 4
8 6 1 6 -6 1 -17 -5 -23 -13z"/>
<path d="M2822 4550 c0 -14 2 -19 5 -12 2 6 2 18 0 25 -3 6 -5 1 -5 -13z"/>
<path d="M2781 4529 c-13 -11 -22 -22 -19 -25 3 -2 16 4 29 15 13 11 22 22 19
24 -3 3 -16 -3 -29 -14z"/>
<path d="M2780 4480 c0 -22 1 -23 24 -14 13 5 14 9 5 20 -16 20 -29 17 -29 -6z"/>
<path d="M2885 4290 c-3 -5 -1 -10 4 -10 6 0 11 5 11 10 0 6 -2 10 -4 10 -3 0
-8 -4 -11 -10z"/>
<path d="M3085 4280 c3 -5 8 -10 11 -10 2 0 4 5 4 10 0 6 -5 10 -11 10 -5 0
-7 -4 -4 -10z"/>
<path d="M2957 4260 c3 -11 7 -20 9 -20 2 0 4 9 4 20 0 11 -4 20 -9 20 -5 0
-7 -9 -4 -20z"/>
<path d="M3166 4242 c-3 -6 -1 -14 5 -17 14 -9 20 -2 10 14 -6 8 -11 9 -15 3z"/>
<path d="M3040 4209 c0 -5 9 -9 20 -9 11 0 20 2 20 4 0 2 -9 6 -20 9 -11 3
-20 1 -20 -4z"/>
<path d="M3080 4164 c0 -14 3 -15 18 -3 9 7 19 15 21 16 2 2 -5 3 -17 3 -14 0
-22 -6 -22 -16z"/>
<path d="M0 3870 c0 -5 5 -10 10 -10 6 0 10 5 10 10 0 6 -4 10 -10 10 -5 0
-10 -4 -10 -10z"/>
<path d="M2 3830 c0 -14 2 -19 5 -12 2 6 2 18 0 25 -3 6 -5 1 -5 -13z"/>
<path d="M30 3780 c-13 -8 -12 -10 3 -10 9 0 17 5 17 10 0 12 -1 12 -20 0z"/>
<path d="M30 3741 c-15 -29 -13 -61 4 -55 9 4 14 18 13 40 -2 40 -3 40 -17 15z"/>
<path d="M86 3692 c-4 -7 -1 -15 8 -18 9 -3 12 -12 8 -22 -5 -15 -3 -15 11 -4
15 13 13 47 -3 37 -5 -3 -10 0 -12 7 -3 9 -6 9 -12 0z"/>
<path d="M36 3643 c-3 -3 -6 -17 -6 -30 0 -27 -16 -31 -23 -5 -4 13 -5 11 -6
-5 0 -13 4 -23 10 -23 5 0 8 -4 4 -9 -3 -5 -1 -12 5 -16 5 -3 10 3 10 14 0 12
7 21 15 21 9 0 15 9 15 24 0 26 -12 40 -24 29z"/>
<path d="M95 3589 c-5 -15 -9 -18 -15 -9 -15 24 -20 -8 -5 -36 l14 -28 11 28
c5 15 10 32 10 37 0 5 5 9 11 9 5 0 7 5 4 10 -10 16 -23 11 -30 -11z"/>
<path d="M128 3553 c6 -2 18 -2 25 0 6 3 1 5 -13 5 -14 0 -19 -2 -12 -5z"/>
<path d="M30 3525 c-8 -10 -9 -15 -2 -15 6 0 9 -7 6 -15 -4 -8 -1 -15 5 -15 6
0 12 5 12 10 3 20 4 25 12 38 12 18 -18 15 -33 -3z"/>
<path d="M109 3523 c-1 -5 0 -18 1 -31 1 -13 -5 -29 -13 -35 -20 -16 -30 -140
-10 -133 7 3 13 -1 13 -9 0 -12 13 -14 63 -6 19 3 4 22 -15 20 -31 -4 -48 8
-48 33 0 14 5 18 16 14 9 -3 20 -6 25 -6 5 0 9 -6 9 -14 0 -19 31 -29 64 -20
17 4 26 2 26 -6 0 -7 -7 -10 -15 -6 -9 3 -15 0 -15 -10 0 -8 4 -13 9 -9 5 3
12 1 16 -5 4 -6 11 -8 16 -5 12 8 12 65 -1 65 -5 0 -21 12 -35 26 -29 29 -48
25 -21 -5 14 -15 14 -20 2 -30 -11 -9 -18 -7 -34 14 -11 14 -25 25 -31 25 -6
0 -11 7 -11 15 0 8 -6 14 -12 13 -7 -2 -13 4 -13 12 0 8 6 14 13 13 7 -2 12 7
12 20 0 12 3 32 6 45 4 13 2 22 -5 22 -6 0 -11 -3 -12 -7z"/>
<path d="M153 3518 c-12 -21 -12 -36 1 -41 7 -3 13 6 14 24 2 31 -2 36 -15 17z"/>
<path d="M0 3443 c0 -10 52 -34 58 -28 3 2 -1 11 -8 20 -13 15 -50 21 -50 8z"/>
<path d="M138 3428 c3 -12 7 -18 9 -12 2 6 16 9 31 6 35 -6 18 13 -20 22 -23
5 -25 3 -20 -16z"/>
<path d="M2611 3394 c0 -11 3 -14 6 -6 3 7 2 16 -1 19 -3 4 -6 -2 -5 -13z"/>
<path d="M35 3340 c-10 -16 5 -71 17 -64 5 3 7 16 4 27 -3 12 0 27 6 34 8 10
7 13 -5 13 -9 0 -19 -5 -22 -10z"/>
<path d="M2591 3314 c0 -11 3 -14 6 -6 3 7 2 16 -1 19 -3 4 -6 -2 -5 -13z"/>
<path d="M274 3293 c-6 -10 -26 -17 -49 -18 -56 -4 -55 -3 -49 -20 4 -9 14
-13 23 -11 20 7 43 -7 39 -24 -2 -7 3 -15 11 -18 10 -3 12 0 7 14 -12 30 -12
36 2 41 8 3 12 -7 12 -31 0 -20 4 -36 9 -36 14 0 20 25 10 41 -5 8 -6 29 -3
47 7 36 4 40 -12 15z"/>
<path d="M5 3279 c-10 -15 3 -25 16 -12 7 7 7 13 1 17 -6 3 -14 1 -17 -5z"/>
<path d="M84 3257 c-7 -18 -34 -24 -34 -7 0 6 -4 10 -10 10 -5 0 -10 -7 -10
-16 0 -8 4 -13 8 -10 4 2 14 1 22 -4 7 -4 23 -5 35 0 13 5 27 3 40 -6 15 -11
20 -11 27 -1 13 20 9 24 -23 24 -17 0 -35 6 -39 14 -7 11 -10 10 -16 -4z"/>
<path d="M1813 3234 c-21 -33 -43 -159 -44 -254 -2 -128 24 -233 76 -305 30
-42 105 -175 105 -186 0 -5 4 -9 10 -9 5 0 12 -11 16 -25 3 -14 10 -25 14 -25
4 0 14 -15 21 -32 12 -30 24 -47 54 -82 14 -16 17 -43 5 -51 -5 -3 -10 -17
-10 -31 0 -13 -4 -24 -10 -24 -5 0 -10 -20 -10 -45 0 -25 -7 -57 -16 -70 -9
-14 -13 -25 -9 -25 5 0 1 -8 -9 -19 -15 -16 -15 -19 -1 -31 20 -16 87 -8 123
16 15 10 32 18 38 19 15 0 38 27 44 50 6 26 3 204 -3 230 -3 11 -6 22 -6 24
-1 2 -8 -2 -16 -9 -8 -6 -19 -9 -25 -5 -5 3 -10 0 -10 -7 0 -23 -20 15 -20 39
0 14 -19 41 -51 70 -57 54 -77 93 -84 167 -10 90 -11 225 -3 220 4 -3 8 2 8
10 0 23 -4 31 -12 29 -5 -2 -8 4 -8 12 0 8 3 15 8 15 4 0 7 13 7 29 0 16 -3
27 -6 25 -4 -2 -9 11 -12 29 -3 17 -11 52 -17 77 -7 25 -13 54 -15 65 -1 11
-3 23 -4 28 0 4 -7 7 -15 7 -9 0 -12 8 -8 26 3 19 -2 30 -19 42 -44 31 -68 33
-86 6z"/>
<path d="M190 3183 c0 -18 3 -32 8 -32 32 5 44 -2 40 -26 -3 -14 -1 -22 5 -18
5 3 8 0 5 -8 -3 -8 -15 -16 -28 -17 -17 -3 -21 0 -17 11 3 9 0 21 -8 27 -10 8
-14 8 -18 -2 -3 -7 -6 -1 -6 15 -1 15 -6 27 -12 27 -6 0 -8 -9 -3 -22 4 -13 7
-32 7 -43 -1 -11 1 -14 4 -7 4 9 9 8 21 -6 10 -10 25 -21 35 -25 10 -4 15 -12
11 -18 -4 -7 -1 -10 7 -7 7 2 16 15 20 29 6 21 7 21 8 4 1 -12 6 -26 12 -32 6
-6 9 -21 7 -34 l-5 -24 -10 24 c-6 16 -12 20 -17 13 -4 -7 -11 -10 -15 -7 -5
2 -6 -7 -3 -20 3 -20 -1 -27 -23 -35 -15 -6 -25 -16 -22 -23 4 -13 31 -14 61
-2 16 7 18 5 14 -13 -4 -12 -1 -22 4 -22 7 0 9 16 5 40 -3 22 -1 40 4 40 4 0
15 12 23 28 11 19 15 22 16 10 0 -10 5 -18 10 -18 6 0 10 -7 10 -15 0 -8 -3
-14 -7 -14 -5 1 -16 1 -26 0 -30 -2 -8 -21 24 -21 19 0 29 -5 29 -15 0 -8 5
-15 10 -15 6 0 10 11 10 23 0 15 9 28 23 35 12 6 17 11 10 11 -7 1 -10 8 -7
16 4 9 0 15 -10 15 -9 0 -16 -4 -16 -10 0 -5 -4 -10 -10 -10 -5 0 -10 9 -10
20 0 11 5 20 10 20 6 0 10 17 9 38 0 21 -3 31 -7 22 -9 -20 -32 -24 -32 -5 0
22 -17 18 -23 -6 -6 -21 -31 -22 -33 -1 -1 7 -2 17 -3 22 0 6 -8 10 -16 10
-11 0 -12 5 -5 26 17 43 13 53 -21 52 -17 -1 -35 5 -40 13 -6 10 -9 4 -9 -18z"/>
<path d="M121 3192 c4 -26 -3 -41 -16 -36 -18 7 -19 0 -5 -27 15 -27 26 -24
39 12 14 41 14 46 -4 53 -8 3 -14 2 -14 -2z"/>
<path d="M20 3180 c0 -5 5 -10 10 -10 6 0 10 5 10 10 0 6 -4 10 -10 10 -5 0
-10 -4 -10 -10z"/>
<path d="M290 3155 c0 -13 36 -36 44 -28 16 16 5 38 -19 38 -14 0 -25 -5 -25
-10z"/>
<path d="M3 3120 c0 -25 2 -35 4 -22 2 12 2 32 0 45 -2 12 -4 2 -4 -23z"/>
<path d="M71 3144 c0 -11 3 -14 6 -6 3 7 2 16 -1 19 -3 4 -6 -2 -5 -13z"/>
<path d="M24 3116 c-4 -10 -2 -22 4 -28 8 -8 13 -7 18 6 4 10 2 22 -4 28 -8 8
-13 7 -18 -6z"/>
<path d="M156 3021 c-9 -14 2 -51 15 -51 5 0 9 5 9 11 0 5 5 7 10 4 6 -3 10 4
10 17 0 17 -3 19 -9 9 -7 -11 -10 -10 -18 4 -7 12 -12 14 -17 6z"/>
<path d="M106 2977 c3 -10 9 -15 12 -12 3 3 0 11 -7 18 -10 9 -11 8 -5 -6z"/>
<path d="M27 2938 c-3 -12 -2 -29 3 -37 8 -13 9 -12 10 6 0 12 3 28 6 37 3 9
2 16 -4 16 -5 0 -12 -10 -15 -22z"/>
<path d="M150 2930 c0 -5 7 -10 15 -10 8 0 15 5 15 10 0 6 -7 10 -15 10 -8 0
-15 -4 -15 -10z"/>
<path d="M2186 2922 c-4 -10 -22 -35 -41 -56 -19 -21 -35 -42 -35 -47 0 -5 -6
-9 -13 -9 -8 0 -19 -10 -25 -22 -20 -42 -42 -134 -36 -159 3 -13 8 -40 11 -59
4 -19 16 -42 27 -51 22 -18 122 -42 137 -33 5 3 9 27 9 53 0 39 -6 55 -30 82
-16 19 -30 43 -30 53 0 32 40 155 54 163 21 13 25 37 10 71 -15 36 -30 41 -38
14z"/>
<path d="M2650 2929 c0 -5 5 -7 10 -4 6 3 10 8 10 11 0 2 -4 4 -10 4 -5 0 -10
-5 -10 -11z"/>
<path d="M83 2915 c-9 -25 4 -29 17 -6 7 15 7 21 0 21 -6 0 -13 -7 -17 -15z"/>
<path d="M230 2888 c0 -10 -5 -18 -12 -18 -6 0 -9 -3 -5 -6 3 -3 12 -2 21 3
10 6 12 13 6 23 -8 13 -10 12 -10 -2z"/>
<path d="M287 2884 c-3 -4 -2 -15 3 -25 8 -14 5 -22 -12 -34 l-23 -17 25 7
c31 9 28 6 30 30 5 41 -5 57 -23 39z"/>
<path d="M145 2860 c-6 -10 -5 -11 34 -15 13 -1 27 -8 31 -15 6 -9 12 -9 29
-1 29 16 27 31 -3 25 -14 -2 -28 0 -31 6 -8 13 -52 13 -60 0z"/>
<path d="M87 2853 c-12 -12 -7 -33 8 -33 17 0 19 9 7 28 -5 7 -11 9 -15 5z"/>
<path d="M293 2806 c-13 -6 -23 -19 -23 -30 0 -14 3 -16 14 -7 7 6 20 9 28 6
9 -4 14 3 16 20 2 27 -1 28 -35 11z"/>
<path d="M180 2802 c0 -5 7 -17 15 -28 15 -19 20 -8 9 20 -6 17 -24 22 -24 8z"/>
<path d="M162 2765 c0 -16 2 -22 5 -12 2 9 2 23 0 30 -3 6 -5 -1 -5 -18z"/>
<path d="M230 2778 c0 -9 5 -20 10 -23 13 -8 13 5 0 25 -8 13 -10 13 -10 -2z"/>
<path d="M1 2764 c0 -11 3 -14 6 -6 3 7 2 16 -1 19 -3 4 -6 -2 -5 -13z"/>
<path d="M337 2756 c-3 -8 -17 -18 -31 -22 -28 -7 -44 -34 -20 -34 8 0 17 7
20 15 9 23 41 18 49 -7 l8 -23 4 23 c3 14 12 22 24 22 10 0 19 5 19 10 0 6
-10 10 -23 10 -13 0 -28 5 -34 11 -7 7 -12 6 -16 -5z"/>
<path d="M21 2737 c-1 -11 -6 -15 -13 -11 -7 5 -8 3 -3 -5 10 -16 29 2 22 21
-4 8 -6 7 -6 -5z"/>
<path d="M100 2705 c-7 -14 -11 -28 -8 -31 4 -3 9 4 13 15 3 12 13 21 21 21 8
0 12 5 9 10 -10 16 -21 12 -35 -15z"/>
<path d="M450 2722 c0 -5 7 -13 16 -16 10 -4 14 -1 12 6 -5 15 -28 23 -28 10z"/>
<path d="M2821 2703 c0 -13 1 -23 3 -23 2 0 11 -3 20 -6 10 -4 16 -1 16 10 0
9 -6 13 -14 10 -8 -3 -16 2 -19 13 -4 14 -5 14 -6 -4z"/>
<path d="M236 2672 c-3 -5 1 -13 10 -16 8 -3 13 -10 10 -15 -8 -13 26 -24 36
-11 4 5 5 8 2 5 -4 -3 -17 7 -29 21 -13 15 -25 22 -29 16z"/>
<path d="M173 2663 c-18 -7 -16 -23 2 -23 8 0 15 7 15 15 0 8 -1 15 -2 14 -2
0 -9 -3 -15 -6z"/>
<path d="M96 2653 c-4 -4 -16 -8 -26 -8 -11 0 -19 -4 -17 -10 1 -5 8 -9 15 -9
6 1 12 -3 12 -8 0 -19 23 -2 27 20 3 23 1 26 -11 15z"/>
<path d="M0 2640 c0 -5 5 -10 11 -10 5 0 7 5 4 10 -3 6 -8 10 -11 10 -2 0 -4
-4 -4 -10z"/>
<path d="M213 2633 c-30 -6 -30 -33 0 -33 16 0 23 6 23 20 0 11 0 19 -1 19 0
-1 -10 -4 -22 -6z"/>
<path d="M2885 2620 c4 -6 11 -8 16 -5 14 9 11 15 -7 15 -8 0 -12 -5 -9 -10z"/>
<path d="M30 2587 c0 -8 7 -17 15 -21 8 -3 15 -2 15 3 0 5 -7 14 -15 21 -12
10 -15 10 -15 -3z"/>
<path d="M120 2589 c0 -45 13 -79 31 -79 11 0 19 5 19 11 0 6 -7 9 -15 5 -8
-3 -15 0 -14 7 1 18 17 54 18 40 1 -12 41 -14 41 -2 0 11 -38 21 -51 13 -6 -3
-15 0 -20 7 -7 11 -9 11 -9 -2z"/>
<path d="M261 2586 c-19 -23 -22 -56 -5 -56 9 0 12 5 8 11 -9 16 18 30 33 17
10 -8 13 -6 13 10 0 11 -7 23 -16 26 -21 8 -20 8 -33 -8z"/>
<path d="M94 2582 c-6 -4 -10 -21 -10 -39 1 -35 15 -57 17 -27 3 40 5 74 4 74
0 0 -5 -4 -11 -8z"/>
<path d="M2965 2570 c3 -5 10 -10 16 -10 5 0 9 5 9 10 0 6 -7 10 -16 10 -8 0
-12 -4 -9 -10z"/>
<path d="M2988 2533 c7 -3 16 -2 19 1 4 3 -2 6 -13 5 -11 0 -14 -3 -6 -6z"/>
<path d="M44 2506 c-1 -14 4 -27 10 -29 8 -3 13 5 13 24 0 35 -21 39 -23 5z"/>
<path d="M255 2490 c-3 -5 3 -10 14 -10 12 0 21 -5 21 -11 0 -5 5 -7 10 -4 16
10 50 -5 50 -21 0 -8 5 -14 11 -14 6 0 8 7 5 16 -3 9 -6 19 -6 23 0 4 -14 8
-31 9 -17 1 -39 7 -50 12 -12 7 -20 7 -24 0z"/>
<path d="M0 2463 c0 -10 4 -14 8 -8 4 6 11 13 16 18 5 4 2 7 -7 7 -10 0 -17
-8 -17 -17z"/>
<path d="M3062 2455 c0 -16 2 -22 5 -12 2 9 2 23 0 30 -3 6 -5 -1 -5 -18z"/>
<path d="M100 2450 c0 -5 5 -10 10 -10 6 0 10 5 10 10 0 6 -4 10 -10 10 -5 0
-10 -4 -10 -10z"/>
<path d="M2990 2440 c0 -5 5 -10 10 -10 6 0 10 5 10 10 0 6 -4 10 -10 10 -5 0
-10 -4 -10 -10z"/>
<path d="M138 2433 c7 -3 16 -2 19 1 4 3 -2 6 -13 5 -11 0 -14 -3 -6 -6z"/>
<path d="M130 2360 c-8 -5 -12 -12 -9 -15 4 -3 12 1 19 10 14 17 11 19 -10 5z"/>
<path d="M22 2340 c0 -14 2 -19 5 -12 2 6 2 18 0 25 -3 6 -5 1 -5 -13z"/>
<path d="M105 2319 c-4 -6 -3 -15 3 -21 6 -6 11 -4 15 6 7 18 -9 31 -18 15z"/>
<path d="M5 2300 c3 -5 12 -7 20 -3 21 7 19 13 -6 13 -11 0 -18 -4 -14 -10z"/>
<path d="M8 2255 c-6 -30 -3 -43 8 -33 3 4 4 19 2 35 l-3 28 -7 -30z"/>
<path d="M40 2270 c0 -5 5 -10 10 -10 6 0 10 5 10 10 0 6 -4 10 -10 10 -5 0
-10 -4 -10 -10z"/>
<path d="M70 2276 c0 -2 7 -6 15 -10 8 -3 15 -1 15 4 0 6 -7 10 -15 10 -8 0
-15 -2 -15 -4z"/>
<path d="M3035 2270 c3 -5 11 -10 16 -10 6 0 7 5 4 10 -3 6 -11 10 -16 10 -6
0 -7 -4 -4 -10z"/>
<path d="M34 2231 c5 -7 0 -19 -10 -27 -18 -15 -18 -15 -1 -10 10 3 21 6 23 6
9 0 3 29 -8 36 -7 5 -8 3 -4 -5z"/>
<path d="M43 2183 c-7 -3 -13 -12 -13 -21 0 -15 2 -15 17 1 18 18 16 27 -4 20z"/>
<path d="M47 2143 c-14 -13 -6 -20 18 -15 14 2 28 8 31 13 6 10 -39 12 -49 2z"/>
<path d="M7 2123 c-11 -10 -8 -20 8 -27 10 -4 15 1 15 14 0 20 -11 26 -23 13z"/>
<path d="M110 2100 c0 -5 5 -10 10 -10 6 0 10 5 10 10 0 6 -4 10 -10 10 -5 0
-10 -4 -10 -10z"/>
<path d="M200 2040 c0 -5 5 -10 10 -10 6 0 10 5 10 10 0 6 -4 10 -10 10 -5 0
-10 -4 -10 -10z"/>
<path d="M906 1941 c-4 -7 -5 -15 -2 -18 9 -9 19 4 14 18 -4 11 -6 11 -12 0z"/>
<path d="M2906 1895 c4 -8 7 -15 9 -15 2 0 5 7 9 15 3 9 0 15 -9 15 -9 0 -12
-6 -9 -15z"/>
<path d="M2790 1869 c0 -5 5 -7 10 -4 6 3 10 8 10 11 0 2 -4 4 -10 4 -5 0 -10
-5 -10 -11z"/>
<path d="M2792 1822 c-7 -19 8 -29 18 -12 7 12 12 11 29 -5 12 -10 24 -15 28
-12 3 4 1 7 -6 7 -8 0 -11 8 -9 18 4 14 -1 18 -25 17 -16 0 -32 -6 -35 -13z"/>
<path d="M2760 1810 c0 -11 4 -20 9 -20 5 0 7 9 4 20 -3 11 -7 20 -9 20 -2 0
-4 -9 -4 -20z"/>
<path d="M2390 1651 c0 -6 5 -13 10 -16 6 -3 10 1 10 9 0 9 -4 16 -10 16 -5 0
-10 -4 -10 -9z"/>
<path d="M0 1484 c0 -8 5 -12 10 -9 6 4 8 11 5 16 -9 14 -15 11 -15 -7z"/>
</g>
</svg>
